solid OpenSCAD_Model
  facet normal 0 0 -1
    outer loop
      vertex -5 0 -7.5
      vertex -4.97261 0.522642 -7.5
      vertex -4.97261 -0.522642 -7.5
    endloop
  endfacet
  facet normal 0 0 -1
    outer loop
      vertex -4.97261 -0.522642 -7.5
      vertex -4.97261 0.522642 -7.5
      vertex -4.89074 1.03956 -7.5
    endloop
  endfacet
  facet normal 0 0 -1
    outer loop
      vertex -4.97261 -0.522642 -7.5
      vertex -4.89074 1.03956 -7.5
      vertex -4.75528 1.54508 -7.5
    endloop
  endfacet
  facet normal 0 0 -1
    outer loop
      vertex -4.97261 -0.522642 -7.5
      vertex -4.75528 1.54508 -7.5
      vertex -4.56773 2.03368 -7.5
    endloop
  endfacet
  facet normal 0 0 -1
    outer loop
      vertex -4.97261 -0.522642 -7.5
      vertex -4.56773 2.03368 -7.5
      vertex -4.33013 2.5 -7.5
    endloop
  endfacet
  facet normal 0 0 -1
    outer loop
      vertex -4.97261 -0.522642 -7.5
      vertex -4.33013 2.5 -7.5
      vertex -4.04508 2.93893 -7.5
    endloop
  endfacet
  facet normal 0 0 -1
    outer loop
      vertex -4.97261 -0.522642 -7.5
      vertex -4.04508 2.93893 -7.5
      vertex -3.71572 3.34565 -7.5
    endloop
  endfacet
  facet normal 0 0 -1
    outer loop
      vertex -4.97261 -0.522642 -7.5
      vertex -3.71572 3.34565 -7.5
      vertex -3.34565 3.71572 -7.5
    endloop
  endfacet
  facet normal 0 0 -1
    outer loop
      vertex -4.97261 -0.522642 -7.5
      vertex -3.34565 3.71572 -7.5
      vertex -2.93893 4.04508 -7.5
    endloop
  endfacet
  facet normal 0 0 -1
    outer loop
      vertex -4.97261 -0.522642 -7.5
      vertex -2.93893 4.04508 -7.5
      vertex -2.5 4.33013 -7.5
    endloop
  endfacet
  facet normal 0 0 -1
    outer loop
      vertex -4.97261 -0.522642 -7.5
      vertex -2.5 4.33013 -7.5
      vertex -2.03368 4.56773 -7.5
    endloop
  endfacet
  facet normal 0 0 -1
    outer loop
      vertex -4.97261 -0.522642 -7.5
      vertex -2.03368 4.56773 -7.5
      vertex -1.54508 4.75528 -7.5
    endloop
  endfacet
  facet normal 0 0 -1
    outer loop
      vertex -4.97261 -0.522642 -7.5
      vertex -1.54508 4.75528 -7.5
      vertex -1.03956 4.89074 -7.5
    endloop
  endfacet
  facet normal 0 0 -1
    outer loop
      vertex -4.97261 -0.522642 -7.5
      vertex -1.03956 4.89074 -7.5
      vertex -0.522642 4.97261 -7.5
    endloop
  endfacet
  facet normal 0 0 -1
    outer loop
      vertex -4.97261 -0.522642 -7.5
      vertex -0.522642 4.97261 -7.5
      vertex 0 5 -7.5
    endloop
  endfacet
  facet normal 0 0 -1
    outer loop
      vertex -4.97261 -0.522642 -7.5
      vertex 0 5 -7.5
      vertex 0.522642 4.97261 -7.5
    endloop
  endfacet
  facet normal 0 0 -1
    outer loop
      vertex -4.97261 -0.522642 -7.5
      vertex 0.522642 4.97261 -7.5
      vertex 1.03956 4.89074 -7.5
    endloop
  endfacet
  facet normal 0 0 -1
    outer loop
      vertex -4.97261 -0.522642 -7.5
      vertex 1.03956 4.89074 -7.5
      vertex 1.54508 4.75528 -7.5
    endloop
  endfacet
  facet normal 0 0 -1
    outer loop
      vertex -4.97261 -0.522642 -7.5
      vertex 1.54508 4.75528 -7.5
      vertex 2.03368 4.56773 -7.5
    endloop
  endfacet
  facet normal 0 0 -1
    outer loop
      vertex -4.97261 -0.522642 -7.5
      vertex 2.03368 4.56773 -7.5
      vertex 2.5 4.33013 -7.5
    endloop
  endfacet
  facet normal 0 0 -1
    outer loop
      vertex -4.97261 -0.522642 -7.5
      vertex 2.5 4.33013 -7.5
      vertex 2.93893 4.04508 -7.5
    endloop
  endfacet
  facet normal 0 0 -1
    outer loop
      vertex -0.209057 1.98904 -7.5
      vertex 2.93893 4.04508 -7.5
      vertex 3.34565 3.71572 -7.5
    endloop
  endfacet
  facet normal 0 0 -1
    outer loop
      vertex 0.415823 1.95629 -7.5
      vertex 3.34565 3.71572 -7.5
      vertex 3.71572 3.34565 -7.5
    endloop
  endfacet
  facet normal 0 0 -1
    outer loop
      vertex 0.813473 1.82709 -7.5
      vertex 3.71572 3.34565 -7.5
      vertex 4.04508 2.93893 -7.5
    endloop
  endfacet
  facet normal 0 0 -1
    outer loop
      vertex 1.17557 1.61803 -7.5
      vertex 4.04508 2.93893 -7.5
      vertex 4.33013 2.5 -7.5
    endloop
  endfacet
  facet normal 0 0 -1
    outer loop
      vertex 1.48629 1.33826 -7.5
      vertex 4.33013 2.5 -7.5
      vertex 4.56773 2.03368 -7.5
    endloop
  endfacet
  facet normal 0 0 -1
    outer loop
      vertex 1.73205 1 -7.5
      vertex 4.56773 2.03368 -7.5
      vertex 4.75528 1.54508 -7.5
    endloop
  endfacet
  facet normal 0 0 -1
    outer loop
      vertex 1.90211 0.618034 -7.5
      vertex 4.75528 1.54508 -7.5
      vertex 4.89074 1.03956 -7.5
    endloop
  endfacet
  facet normal 0 0 -1
    outer loop
      vertex 1.98904 0.209057 -7.5
      vertex 4.89074 1.03956 -7.5
      vertex 4.97261 0.522642 -7.5
    endloop
  endfacet
  facet normal 0 0 -1
    outer loop
      vertex 2 0 -7.5
      vertex 4.97261 0.522642 -7.5
      vertex 5 0 -7.5
    endloop
  endfacet
  facet normal 0 0 -1
    outer loop
      vertex 1.95629 -0.415823 -7.5
      vertex 5 0 -7.5
      vertex 4.97261 -0.522642 -7.5
    endloop
  endfacet
  facet normal 0 0 -1
    outer loop
      vertex 1.82709 -0.813473 -7.5
      vertex 4.97261 -0.522642 -7.5
      vertex 4.89074 -1.03956 -7.5
    endloop
  endfacet
  facet normal 0 0 -1
    outer loop
      vertex 1.61803 -1.17557 -7.5
      vertex 4.89074 -1.03956 -7.5
      vertex 4.75528 -1.54508 -7.5
    endloop
  endfacet
  facet normal 0 0 -1
    outer loop
      vertex 1.33826 -1.48629 -7.5
      vertex 4.75528 -1.54508 -7.5
      vertex 4.56773 -2.03368 -7.5
    endloop
  endfacet
  facet normal 0 0 -1
    outer loop
      vertex 1 -1.73205 -7.5
      vertex 4.56773 -2.03368 -7.5
      vertex 4.33013 -2.5 -7.5
    endloop
  endfacet
  facet normal 0 0 -1
    outer loop
      vertex 0.618034 -1.90211 -7.5
      vertex 4.33013 -2.5 -7.5
      vertex 4.04508 -2.93893 -7.5
    endloop
  endfacet
  facet normal 0 0 -1
    outer loop
      vertex 0 -2 -7.5
      vertex 4.04508 -2.93893 -7.5
      vertex 3.71572 -3.34565 -7.5
    endloop
  endfacet
  facet normal 0 0 -1
    outer loop
      vertex -4.97261 -0.522642 -7.5
      vertex 3.71572 -3.34565 -7.5
      vertex 3.34565 -3.71572 -7.5
    endloop
  endfacet
  facet normal 0 0 -1
    outer loop
      vertex -4.97261 -0.522642 -7.5
      vertex 3.34565 -3.71572 -7.5
      vertex 2.93893 -4.04508 -7.5
    endloop
  endfacet
  facet normal 0 0 -1
    outer loop
      vertex -4.97261 -0.522642 -7.5
      vertex 2.93893 -4.04508 -7.5
      vertex 2.5 -4.33013 -7.5
    endloop
  endfacet
  facet normal 0 0 -1
    outer loop
      vertex -4.97261 -0.522642 -7.5
      vertex 2.5 -4.33013 -7.5
      vertex 2.03368 -4.56773 -7.5
    endloop
  endfacet
  facet normal 0 0 -1
    outer loop
      vertex -4.97261 -0.522642 -7.5
      vertex 2.03368 -4.56773 -7.5
      vertex 1.54508 -4.75528 -7.5
    endloop
  endfacet
  facet normal 0 0 -1
    outer loop
      vertex -4.97261 -0.522642 -7.5
      vertex 1.54508 -4.75528 -7.5
      vertex 1.03956 -4.89074 -7.5
    endloop
  endfacet
  facet normal 0 0 -1
    outer loop
      vertex -4.97261 -0.522642 -7.5
      vertex 1.03956 -4.89074 -7.5
      vertex 0.522642 -4.97261 -7.5
    endloop
  endfacet
  facet normal 0 0 -1
    outer loop
      vertex -4.97261 -0.522642 -7.5
      vertex 0.522642 -4.97261 -7.5
      vertex 0 -5 -7.5
    endloop
  endfacet
  facet normal 0 0 -1
    outer loop
      vertex -4.97261 -0.522642 -7.5
      vertex 0 -5 -7.5
      vertex -0.522642 -4.97261 -7.5
    endloop
  endfacet
  facet normal 0 0 -1
    outer loop
      vertex -4.97261 -0.522642 -7.5
      vertex -0.522642 -4.97261 -7.5
      vertex -1.03956 -4.89074 -7.5
    endloop
  endfacet
  facet normal 0 0 -1
    outer loop
      vertex -4.97261 -0.522642 -7.5
      vertex -1.03956 -4.89074 -7.5
      vertex -1.54508 -4.75528 -7.5
    endloop
  endfacet
  facet normal 0 0 -1
    outer loop
      vertex -4.97261 -0.522642 -7.5
      vertex -1.54508 -4.75528 -7.5
      vertex -2.03368 -4.56773 -7.5
    endloop
  endfacet
  facet normal 0 0 -1
    outer loop
      vertex -4.97261 -0.522642 -7.5
      vertex -2.03368 -4.56773 -7.5
      vertex -2.5 -4.33013 -7.5
    endloop
  endfacet
  facet normal 0 0 -1
    outer loop
      vertex -4.97261 -0.522642 -7.5
      vertex -2.5 -4.33013 -7.5
      vertex -2.93893 -4.04508 -7.5
    endloop
  endfacet
  facet normal 0 0 -1
    outer loop
      vertex -4.97261 -0.522642 -7.5
      vertex -2.93893 -4.04508 -7.5
      vertex -3.34565 -3.71572 -7.5
    endloop
  endfacet
  facet normal 0 0 -1
    outer loop
      vertex -4.97261 -0.522642 -7.5
      vertex -3.34565 -3.71572 -7.5
      vertex -3.71572 -3.34565 -7.5
    endloop
  endfacet
  facet normal 0 0 -1
    outer loop
      vertex -4.97261 -0.522642 -7.5
      vertex -3.71572 -3.34565 -7.5
      vertex -4.04508 -2.93893 -7.5
    endloop
  endfacet
  facet normal 0 0 -1
    outer loop
      vertex -4.97261 -0.522642 -7.5
      vertex -4.04508 -2.93893 -7.5
      vertex -4.33013 -2.5 -7.5
    endloop
  endfacet
  facet normal 0 0 -1
    outer loop
      vertex -4.97261 -0.522642 -7.5
      vertex -4.33013 -2.5 -7.5
      vertex -4.56773 -2.03368 -7.5
    endloop
  endfacet
  facet normal 0 0 -1
    outer loop
      vertex -4.97261 -0.522642 -7.5
      vertex -4.56773 -2.03368 -7.5
      vertex -4.75528 -1.54508 -7.5
    endloop
  endfacet
  facet normal 0 0 -1
    outer loop
      vertex -4.97261 -0.522642 -7.5
      vertex -4.75528 -1.54508 -7.5
      vertex -4.89074 -1.03956 -7.5
    endloop
  endfacet
  facet normal 0 0 -1
    outer loop
      vertex -1.98904 -0.209057 -7.5
      vertex -4.97261 -0.522642 -7.5
      vertex -2 0 -7.5
    endloop
  endfacet
  facet normal 0 0 -1
    outer loop
      vertex -1.95629 -0.415823 -7.5
      vertex -4.97261 -0.522642 -7.5
      vertex -1.98904 -0.209057 -7.5
    endloop
  endfacet
  facet normal 0 0 -1
    outer loop
      vertex -1.90211 -0.618034 -7.5
      vertex -4.97261 -0.522642 -7.5
      vertex -1.95629 -0.415823 -7.5
    endloop
  endfacet
  facet normal 0 0 -1
    outer loop
      vertex -1.82709 -0.813473 -7.5
      vertex -4.97261 -0.522642 -7.5
      vertex -1.90211 -0.618034 -7.5
    endloop
  endfacet
  facet normal 0 0 -1
    outer loop
      vertex -1.73205 -1 -7.5
      vertex -4.97261 -0.522642 -7.5
      vertex -1.82709 -0.813473 -7.5
    endloop
  endfacet
  facet normal 0 0 -1
    outer loop
      vertex -1.61803 -1.17557 -7.5
      vertex -4.97261 -0.522642 -7.5
      vertex -1.73205 -1 -7.5
    endloop
  endfacet
  facet normal 0 0 -1
    outer loop
      vertex -1.48629 -1.33826 -7.5
      vertex -4.97261 -0.522642 -7.5
      vertex -1.61803 -1.17557 -7.5
    endloop
  endfacet
  facet normal 0 0 -1
    outer loop
      vertex -1.17557 -1.61803 -7.5
      vertex -4.97261 -0.522642 -7.5
      vertex -1.33826 -1.48629 -7.5
    endloop
  endfacet
  facet normal 0 0 -1
    outer loop
      vertex -4.97261 -0.522642 -7.5
      vertex -1.48629 -1.33826 -7.5
      vertex -1.33826 -1.48629 -7.5
    endloop
  endfacet
  facet normal 0 0 -1
    outer loop
      vertex -0.415823 -1.95629 -7.5
      vertex 3.71572 -3.34565 -7.5
      vertex -0.618034 -1.90211 -7.5
    endloop
  endfacet
  facet normal 0 0 -1
    outer loop
      vertex -4.97261 -0.522642 -7.5
      vertex -1.17557 -1.61803 -7.5
      vertex -1 -1.73205 -7.5
    endloop
  endfacet
  facet normal 0 0 -1
    outer loop
      vertex -4.97261 -0.522642 -7.5
      vertex -1 -1.73205 -7.5
      vertex -0.813473 -1.82709 -7.5
    endloop
  endfacet
  facet normal 0 0 -1
    outer loop
      vertex -4.97261 -0.522642 -7.5
      vertex -0.813473 -1.82709 -7.5
      vertex -0.618034 -1.90211 -7.5
    endloop
  endfacet
  facet normal 0 0 -1
    outer loop
      vertex -4.97261 -0.522642 -7.5
      vertex -0.618034 -1.90211 -7.5
      vertex 3.71572 -3.34565 -7.5
    endloop
  endfacet
  facet normal 0 0 -1
    outer loop
      vertex -0.209057 -1.98904 -7.5
      vertex 3.71572 -3.34565 -7.5
      vertex -0.415823 -1.95629 -7.5
    endloop
  endfacet
  facet normal 0 0 -1
    outer loop
      vertex 0 -2 -7.5
      vertex 3.71572 -3.34565 -7.5
      vertex -0.209057 -1.98904 -7.5
    endloop
  endfacet
  facet normal 0 0 -1
    outer loop
      vertex 0.209057 -1.98904 -7.5
      vertex 4.04508 -2.93893 -7.5
      vertex 0 -2 -7.5
    endloop
  endfacet
  facet normal 0 0 -1
    outer loop
      vertex 0.415823 -1.95629 -7.5
      vertex 4.04508 -2.93893 -7.5
      vertex 0.209057 -1.98904 -7.5
    endloop
  endfacet
  facet normal 0 0 -1
    outer loop
      vertex 0.618034 -1.90211 -7.5
      vertex 4.04508 -2.93893 -7.5
      vertex 0.415823 -1.95629 -7.5
    endloop
  endfacet
  facet normal 0 0 -1
    outer loop
      vertex 0.813473 -1.82709 -7.5
      vertex 4.33013 -2.5 -7.5
      vertex 0.618034 -1.90211 -7.5
    endloop
  endfacet
  facet normal 0 0 -1
    outer loop
      vertex 1 -1.73205 -7.5
      vertex 4.33013 -2.5 -7.5
      vertex 0.813473 -1.82709 -7.5
    endloop
  endfacet
  facet normal 0 0 -1
    outer loop
      vertex 1.17557 -1.61803 -7.5
      vertex 4.56773 -2.03368 -7.5
      vertex 1 -1.73205 -7.5
    endloop
  endfacet
  facet normal 0 0 -1
    outer loop
      vertex 1.33826 -1.48629 -7.5
      vertex 4.56773 -2.03368 -7.5
      vertex 1.17557 -1.61803 -7.5
    endloop
  endfacet
  facet normal 0 0 -1
    outer loop
      vertex 1.48629 -1.33826 -7.5
      vertex 4.75528 -1.54508 -7.5
      vertex 1.33826 -1.48629 -7.5
    endloop
  endfacet
  facet normal 0 0 -1
    outer loop
      vertex 1.61803 -1.17557 -7.5
      vertex 4.75528 -1.54508 -7.5
      vertex 1.48629 -1.33826 -7.5
    endloop
  endfacet
  facet normal 0 0 -1
    outer loop
      vertex 1.73205 -1 -7.5
      vertex 4.89074 -1.03956 -7.5
      vertex 1.61803 -1.17557 -7.5
    endloop
  endfacet
  facet normal 0 0 -1
    outer loop
      vertex 1.82709 -0.813473 -7.5
      vertex 4.89074 -1.03956 -7.5
      vertex 1.73205 -1 -7.5
    endloop
  endfacet
  facet normal 0 0 -1
    outer loop
      vertex 1.90211 -0.618034 -7.5
      vertex 4.97261 -0.522642 -7.5
      vertex 1.82709 -0.813473 -7.5
    endloop
  endfacet
  facet normal 0 0 -1
    outer loop
      vertex 1.95629 -0.415823 -7.5
      vertex 4.97261 -0.522642 -7.5
      vertex 1.90211 -0.618034 -7.5
    endloop
  endfacet
  facet normal 0 0 -1
    outer loop
      vertex 1.98904 -0.209057 -7.5
      vertex 5 0 -7.5
      vertex 1.95629 -0.415823 -7.5
    endloop
  endfacet
  facet normal 0 0 -1
    outer loop
      vertex 2 0 -7.5
      vertex 5 0 -7.5
      vertex 1.98904 -0.209057 -7.5
    endloop
  endfacet
  facet normal 0 0 -1
    outer loop
      vertex 1.98904 0.209057 -7.5
      vertex 4.97261 0.522642 -7.5
      vertex 2 0 -7.5
    endloop
  endfacet
  facet normal 0 0 -1
    outer loop
      vertex 1.95629 0.415823 -7.5
      vertex 4.89074 1.03956 -7.5
      vertex 1.98904 0.209057 -7.5
    endloop
  endfacet
  facet normal 0 0 -1
    outer loop
      vertex 1.82709 0.813473 -7.5
      vertex 4.75528 1.54508 -7.5
      vertex 1.90211 0.618034 -7.5
    endloop
  endfacet
  facet normal 0 0 -1
    outer loop
      vertex 1.73205 1 -7.5
      vertex 4.75528 1.54508 -7.5
      vertex 1.82709 0.813473 -7.5
    endloop
  endfacet
  facet normal 0 0 -1
    outer loop
      vertex 1.61803 1.17557 -7.5
      vertex 4.56773 2.03368 -7.5
      vertex 1.73205 1 -7.5
    endloop
  endfacet
  facet normal 0 0 -1
    outer loop
      vertex 1.33826 1.48629 -7.5
      vertex 4.33013 2.5 -7.5
      vertex 1.48629 1.33826 -7.5
    endloop
  endfacet
  facet normal 0 0 -1
    outer loop
      vertex 1.17557 1.61803 -7.5
      vertex 4.33013 2.5 -7.5
      vertex 1.33826 1.48629 -7.5
    endloop
  endfacet
  facet normal 0 0 -1
    outer loop
      vertex 1 1.73205 -7.5
      vertex 4.04508 2.93893 -7.5
      vertex 1.17557 1.61803 -7.5
    endloop
  endfacet
  facet normal 0 0 -1
    outer loop
      vertex 0.813473 1.82709 -7.5
      vertex 4.04508 2.93893 -7.5
      vertex 1 1.73205 -7.5
    endloop
  endfacet
  facet normal 0 0 -1
    outer loop
      vertex 0.618034 1.90211 -7.5
      vertex 3.71572 3.34565 -7.5
      vertex 0.813473 1.82709 -7.5
    endloop
  endfacet
  facet normal 0 0 -1
    outer loop
      vertex 0.415823 1.95629 -7.5
      vertex 3.71572 3.34565 -7.5
      vertex 0.618034 1.90211 -7.5
    endloop
  endfacet
  facet normal 0 0 -1
    outer loop
      vertex 0.209057 1.98904 -7.5
      vertex 3.34565 3.71572 -7.5
      vertex 0.415823 1.95629 -7.5
    endloop
  endfacet
  facet normal 0 0 -1
    outer loop
      vertex -0.209057 1.98904 -7.5
      vertex 3.34565 3.71572 -7.5
      vertex 0 2 -7.5
    endloop
  endfacet
  facet normal 0 0 -1
    outer loop
      vertex 0 2 -7.5
      vertex 3.34565 3.71572 -7.5
      vertex 0.209057 1.98904 -7.5
    endloop
  endfacet
  facet normal 0 0 -1
    outer loop
      vertex -0.415823 1.95629 -7.5
      vertex 2.93893 4.04508 -7.5
      vertex -0.209057 1.98904 -7.5
    endloop
  endfacet
  facet normal 0 0 -1
    outer loop
      vertex -1.17557 1.61803 -7.5
      vertex -4.97261 -0.522642 -7.5
      vertex -1 1.73205 -7.5
    endloop
  endfacet
  facet normal 0 0 -1
    outer loop
      vertex -0.618034 1.90211 -7.5
      vertex 2.93893 4.04508 -7.5
      vertex -0.415823 1.95629 -7.5
    endloop
  endfacet
  facet normal 0 0 -1
    outer loop
      vertex -0.813473 1.82709 -7.5
      vertex 2.93893 4.04508 -7.5
      vertex -0.618034 1.90211 -7.5
    endloop
  endfacet
  facet normal 0 0 -1
    outer loop
      vertex -1 1.73205 -7.5
      vertex 2.93893 4.04508 -7.5
      vertex -0.813473 1.82709 -7.5
    endloop
  endfacet
  facet normal 0 0 -1
    outer loop
      vertex -4.97261 -0.522642 -7.5
      vertex 2.93893 4.04508 -7.5
      vertex -1 1.73205 -7.5
    endloop
  endfacet
  facet normal 0 0 -1
    outer loop
      vertex -1.33826 1.48629 -7.5
      vertex -4.97261 -0.522642 -7.5
      vertex -1.17557 1.61803 -7.5
    endloop
  endfacet
  facet normal 0 0 -1
    outer loop
      vertex -1.48629 1.33826 -7.5
      vertex -4.97261 -0.522642 -7.5
      vertex -1.33826 1.48629 -7.5
    endloop
  endfacet
  facet normal 0 0 -1
    outer loop
      vertex -1.61803 1.17557 -7.5
      vertex -4.97261 -0.522642 -7.5
      vertex -1.48629 1.33826 -7.5
    endloop
  endfacet
  facet normal 0 0 -1
    outer loop
      vertex -1.73205 1 -7.5
      vertex -4.97261 -0.522642 -7.5
      vertex -1.61803 1.17557 -7.5
    endloop
  endfacet
  facet normal 0 0 -1
    outer loop
      vertex -1.82709 0.813473 -7.5
      vertex -4.97261 -0.522642 -7.5
      vertex -1.73205 1 -7.5
    endloop
  endfacet
  facet normal 0 0 -1
    outer loop
      vertex -1.90211 0.618034 -7.5
      vertex -4.97261 -0.522642 -7.5
      vertex -1.82709 0.813473 -7.5
    endloop
  endfacet
  facet normal 0 0 -1
    outer loop
      vertex -1.95629 0.415823 -7.5
      vertex -4.97261 -0.522642 -7.5
      vertex -1.90211 0.618034 -7.5
    endloop
  endfacet
  facet normal 0 0 -1
    outer loop
      vertex -1.98904 0.209057 -7.5
      vertex -4.97261 -0.522642 -7.5
      vertex -1.95629 0.415823 -7.5
    endloop
  endfacet
  facet normal 0 0 -1
    outer loop
      vertex -2 0 -7.5
      vertex -4.97261 -0.522642 -7.5
      vertex -1.98904 0.209057 -7.5
    endloop
  endfacet
  facet normal 0 0 -1
    outer loop
      vertex 1.48629 1.33826 -7.5
      vertex 4.56773 2.03368 -7.5
      vertex 1.61803 1.17557 -7.5
    endloop
  endfacet
  facet normal 0 0 -1
    outer loop
      vertex 1.90211 0.618034 -7.5
      vertex 4.89074 1.03956 -7.5
      vertex 1.95629 0.415823 -7.5
    endloop
  endfacet
  facet normal -0.998629 0.0523369 0
    outer loop
      vertex -5 0 -7.5
      vertex -5 0 7.5
      vertex -4.97261 0.522642 -7.5
    endloop
  endfacet
  facet normal -0.998629 0.0523369 0
    outer loop
      vertex -4.97261 0.522642 -7.5
      vertex -5 0 7.5
      vertex -4.97261 0.522642 7.5
    endloop
  endfacet
  facet normal -0.998629 -0.0523369 0
    outer loop
      vertex -5 0 -7.5
      vertex -4.97261 -0.522642 -7.5
      vertex -5 0 7.5
    endloop
  endfacet
  facet normal -0.998629 -0.0523369 0
    outer loop
      vertex -5 0 7.5
      vertex -4.97261 -0.522642 -7.5
      vertex -4.97261 -0.522642 7.5
    endloop
  endfacet
  facet normal -0.987688 -0.156434 0
    outer loop
      vertex -4.97261 -0.522642 -7.5
      vertex -4.89074 -1.03956 -7.5
      vertex -4.97261 -0.522642 7.5
    endloop
  endfacet
  facet normal -0.987688 -0.156434 0
    outer loop
      vertex -4.97261 -0.522642 7.5
      vertex -4.89074 -1.03956 -7.5
      vertex -4.89074 -1.03956 7.5
    endloop
  endfacet
  facet normal -0.965926 -0.258818 0
    outer loop
      vertex -4.89074 -1.03956 -7.5
      vertex -4.75528 -1.54508 -7.5
      vertex -4.89074 -1.03956 7.5
    endloop
  endfacet
  facet normal -0.965926 -0.258818 0
    outer loop
      vertex -4.89074 -1.03956 7.5
      vertex -4.75528 -1.54508 -7.5
      vertex -4.75528 -1.54508 7.5
    endloop
  endfacet
  facet normal -0.93358 -0.358369 0
    outer loop
      vertex -4.75528 -1.54508 -7.5
      vertex -4.56773 -2.03368 -7.5
      vertex -4.75528 -1.54508 7.5
    endloop
  endfacet
  facet normal -0.93358 -0.358369 0
    outer loop
      vertex -4.75528 -1.54508 7.5
      vertex -4.56773 -2.03368 -7.5
      vertex -4.56773 -2.03368 7.5
    endloop
  endfacet
  facet normal -0.891007 -0.45399 0
    outer loop
      vertex -4.56773 -2.03368 -7.5
      vertex -4.33013 -2.5 -7.5
      vertex -4.56773 -2.03368 7.5
    endloop
  endfacet
  facet normal -0.891007 -0.45399 0
    outer loop
      vertex -4.56773 -2.03368 7.5
      vertex -4.33013 -2.5 -7.5
      vertex -4.33013 -2.5 7.5
    endloop
  endfacet
  facet normal -0.83867 -0.544639 0
    outer loop
      vertex -4.33013 -2.5 -7.5
      vertex -4.04508 -2.93893 -7.5
      vertex -4.33013 -2.5 7.5
    endloop
  endfacet
  facet normal -0.83867 -0.544639 0
    outer loop
      vertex -4.33013 -2.5 7.5
      vertex -4.04508 -2.93893 -7.5
      vertex -4.04508 -2.93893 7.5
    endloop
  endfacet
  facet normal -0.777146 -0.62932 0
    outer loop
      vertex -4.04508 -2.93893 -7.5
      vertex -3.71572 -3.34565 -7.5
      vertex -4.04508 -2.93893 7.5
    endloop
  endfacet
  facet normal -0.777146 -0.62932 0
    outer loop
      vertex -4.04508 -2.93893 7.5
      vertex -3.71572 -3.34565 -7.5
      vertex -3.71572 -3.34565 7.5
    endloop
  endfacet
  facet normal -0.707107 -0.707107 0
    outer loop
      vertex -3.71572 -3.34565 7.5
      vertex -3.71572 -3.34565 -7.5
      vertex -3.34565 -3.71572 -7.5
    endloop
  endfacet
  facet normal -0.707107 -0.707107 0
    outer loop
      vertex -3.34565 -3.71572 7.5
      vertex -3.71572 -3.34565 7.5
      vertex -3.34565 -3.71572 -7.5
    endloop
  endfacet
  facet normal -0.62932 -0.777146 0
    outer loop
      vertex -3.34565 -3.71572 7.5
      vertex -3.34565 -3.71572 -7.5
      vertex -2.93893 -4.04508 -7.5
    endloop
  endfacet
  facet normal -0.62932 -0.777146 0
    outer loop
      vertex -2.93893 -4.04508 7.5
      vertex -3.34565 -3.71572 7.5
      vertex -2.93893 -4.04508 -7.5
    endloop
  endfacet
  facet normal -0.544639 -0.83867 0
    outer loop
      vertex -2.93893 -4.04508 7.5
      vertex -2.93893 -4.04508 -7.5
      vertex -2.5 -4.33013 -7.5
    endloop
  endfacet
  facet normal -0.544639 -0.83867 0
    outer loop
      vertex -2.5 -4.33013 7.5
      vertex -2.93893 -4.04508 7.5
      vertex -2.5 -4.33013 -7.5
    endloop
  endfacet
  facet normal -0.45399 -0.891007 0
    outer loop
      vertex -2.5 -4.33013 7.5
      vertex -2.5 -4.33013 -7.5
      vertex -2.03368 -4.56773 -7.5
    endloop
  endfacet
  facet normal -0.45399 -0.891007 0
    outer loop
      vertex -2.03368 -4.56773 7.5
      vertex -2.5 -4.33013 7.5
      vertex -2.03368 -4.56773 -7.5
    endloop
  endfacet
  facet normal -0.358369 -0.93358 0
    outer loop
      vertex -2.03368 -4.56773 7.5
      vertex -2.03368 -4.56773 -7.5
      vertex -1.54508 -4.75528 -7.5
    endloop
  endfacet
  facet normal -0.358369 -0.93358 0
    outer loop
      vertex -1.54508 -4.75528 7.5
      vertex -2.03368 -4.56773 7.5
      vertex -1.54508 -4.75528 -7.5
    endloop
  endfacet
  facet normal -0.258818 -0.965926 0
    outer loop
      vertex -1.54508 -4.75528 7.5
      vertex -1.54508 -4.75528 -7.5
      vertex -1.03956 -4.89074 -7.5
    endloop
  endfacet
  facet normal -0.258818 -0.965926 0
    outer loop
      vertex -1.03956 -4.89074 7.5
      vertex -1.54508 -4.75528 7.5
      vertex -1.03956 -4.89074 -7.5
    endloop
  endfacet
  facet normal -0.156434 -0.987688 0
    outer loop
      vertex -1.03956 -4.89074 7.5
      vertex -1.03956 -4.89074 -7.5
      vertex -0.522642 -4.97261 -7.5
    endloop
  endfacet
  facet normal -0.156434 -0.987688 0
    outer loop
      vertex -0.522642 -4.97261 7.5
      vertex -1.03956 -4.89074 7.5
      vertex -0.522642 -4.97261 -7.5
    endloop
  endfacet
  facet normal -0.0523369 -0.998629 0
    outer loop
      vertex -0.522642 -4.97261 7.5
      vertex -0.522642 -4.97261 -7.5
      vertex 0 -5 -7.5
    endloop
  endfacet
  facet normal -0.0523369 -0.998629 0
    outer loop
      vertex 0 -5 7.5
      vertex -0.522642 -4.97261 7.5
      vertex 0 -5 -7.5
    endloop
  endfacet
  facet normal 0.0523369 -0.998629 0
    outer loop
      vertex 0 -5 7.5
      vertex 0 -5 -7.5
      vertex 0.522642 -4.97261 -7.5
    endloop
  endfacet
  facet normal 0.0523369 -0.998629 0
    outer loop
      vertex 0.522642 -4.97261 7.5
      vertex 0 -5 7.5
      vertex 0.522642 -4.97261 -7.5
    endloop
  endfacet
  facet normal 0.156434 -0.987688 0
    outer loop
      vertex 0.522642 -4.97261 7.5
      vertex 0.522642 -4.97261 -7.5
      vertex 1.03956 -4.89074 -7.5
    endloop
  endfacet
  facet normal 0.156434 -0.987688 0
    outer loop
      vertex 1.03956 -4.89074 7.5
      vertex 0.522642 -4.97261 7.5
      vertex 1.03956 -4.89074 -7.5
    endloop
  endfacet
  facet normal 0.258818 -0.965926 0
    outer loop
      vertex 1.03956 -4.89074 7.5
      vertex 1.03956 -4.89074 -7.5
      vertex 1.54508 -4.75528 -7.5
    endloop
  endfacet
  facet normal 0.258818 -0.965926 0
    outer loop
      vertex 1.54508 -4.75528 7.5
      vertex 1.03956 -4.89074 7.5
      vertex 1.54508 -4.75528 -7.5
    endloop
  endfacet
  facet normal 0.358369 -0.93358 0
    outer loop
      vertex 1.54508 -4.75528 7.5
      vertex 1.54508 -4.75528 -7.5
      vertex 2.03368 -4.56773 -7.5
    endloop
  endfacet
  facet normal 0.358369 -0.93358 0
    outer loop
      vertex 2.03368 -4.56773 7.5
      vertex 1.54508 -4.75528 7.5
      vertex 2.03368 -4.56773 -7.5
    endloop
  endfacet
  facet normal 0.45399 -0.891007 0
    outer loop
      vertex 2.03368 -4.56773 7.5
      vertex 2.03368 -4.56773 -7.5
      vertex 2.5 -4.33013 -7.5
    endloop
  endfacet
  facet normal 0.45399 -0.891007 0
    outer loop
      vertex 2.5 -4.33013 7.5
      vertex 2.03368 -4.56773 7.5
      vertex 2.5 -4.33013 -7.5
    endloop
  endfacet
  facet normal 0.544639 -0.83867 0
    outer loop
      vertex 2.5 -4.33013 7.5
      vertex 2.5 -4.33013 -7.5
      vertex 2.93893 -4.04508 -7.5
    endloop
  endfacet
  facet normal 0.544639 -0.83867 0
    outer loop
      vertex 2.93893 -4.04508 7.5
      vertex 2.5 -4.33013 7.5
      vertex 2.93893 -4.04508 -7.5
    endloop
  endfacet
  facet normal 0.62932 -0.777146 0
    outer loop
      vertex 2.93893 -4.04508 7.5
      vertex 2.93893 -4.04508 -7.5
      vertex 3.34565 -3.71572 -7.5
    endloop
  endfacet
  facet normal 0.62932 -0.777146 0
    outer loop
      vertex 3.34565 -3.71572 7.5
      vertex 2.93893 -4.04508 7.5
      vertex 3.34565 -3.71572 -7.5
    endloop
  endfacet
  facet normal 0.707107 -0.707107 0
    outer loop
      vertex 3.34565 -3.71572 7.5
      vertex 3.34565 -3.71572 -7.5
      vertex 3.71572 -3.34565 -7.5
    endloop
  endfacet
  facet normal 0.707107 -0.707107 0
    outer loop
      vertex 3.71572 -3.34565 7.5
      vertex 3.34565 -3.71572 7.5
      vertex 3.71572 -3.34565 -7.5
    endloop
  endfacet
  facet normal 0.777146 -0.62932 0
    outer loop
      vertex 3.71572 -3.34565 7.5
      vertex 3.71572 -3.34565 -7.5
      vertex 4.04508 -2.93893 -7.5
    endloop
  endfacet
  facet normal 0.777146 -0.62932 0
    outer loop
      vertex 4.04508 -2.93893 7.5
      vertex 3.71572 -3.34565 7.5
      vertex 4.04508 -2.93893 -7.5
    endloop
  endfacet
  facet normal 0.83867 -0.544639 0
    outer loop
      vertex 4.04508 -2.93893 7.5
      vertex 4.04508 -2.93893 -7.5
      vertex 4.33013 -2.5 -7.5
    endloop
  endfacet
  facet normal 0.83867 -0.544639 0
    outer loop
      vertex 4.33013 -2.5 7.5
      vertex 4.04508 -2.93893 7.5
      vertex 4.33013 -2.5 -7.5
    endloop
  endfacet
  facet normal 0.891007 -0.45399 0
    outer loop
      vertex 4.33013 -2.5 7.5
      vertex 4.33013 -2.5 -7.5
      vertex 4.56773 -2.03368 -7.5
    endloop
  endfacet
  facet normal 0.891007 -0.45399 0
    outer loop
      vertex 4.56773 -2.03368 7.5
      vertex 4.33013 -2.5 7.5
      vertex 4.56773 -2.03368 -7.5
    endloop
  endfacet
  facet normal 0.93358 -0.358369 0
    outer loop
      vertex 4.56773 -2.03368 7.5
      vertex 4.56773 -2.03368 -7.5
      vertex 4.75528 -1.54508 -7.5
    endloop
  endfacet
  facet normal 0.93358 -0.358369 0
    outer loop
      vertex 4.75528 -1.54508 7.5
      vertex 4.56773 -2.03368 7.5
      vertex 4.75528 -1.54508 -7.5
    endloop
  endfacet
  facet normal 0.965926 -0.258818 0
    outer loop
      vertex 4.75528 -1.54508 7.5
      vertex 4.75528 -1.54508 -7.5
      vertex 4.89074 -1.03956 -7.5
    endloop
  endfacet
  facet normal 0.965926 -0.258818 0
    outer loop
      vertex 4.89074 -1.03956 7.5
      vertex 4.75528 -1.54508 7.5
      vertex 4.89074 -1.03956 -7.5
    endloop
  endfacet
  facet normal 0.987688 -0.156434 0
    outer loop
      vertex 4.89074 -1.03956 7.5
      vertex 4.89074 -1.03956 -7.5
      vertex 4.97261 -0.522642 -7.5
    endloop
  endfacet
  facet normal 0.987688 -0.156434 0
    outer loop
      vertex 4.97261 -0.522642 7.5
      vertex 4.89074 -1.03956 7.5
      vertex 4.97261 -0.522642 -7.5
    endloop
  endfacet
  facet normal 0.998629 -0.0523369 0
    outer loop
      vertex 4.97261 -0.522642 7.5
      vertex 4.97261 -0.522642 -7.5
      vertex 5 0 -7.5
    endloop
  endfacet
  facet normal 0.998629 -0.0523369 0
    outer loop
      vertex 5 0 7.5
      vertex 4.97261 -0.522642 7.5
      vertex 5 0 -7.5
    endloop
  endfacet
  facet normal 0.998629 0.0523369 0
    outer loop
      vertex 5 0 -7.5
      vertex 4.97261 0.522642 -7.5
      vertex 4.97261 0.522642 7.5
    endloop
  endfacet
  facet normal 0.998629 0.0523369 0
    outer loop
      vertex 5 0 7.5
      vertex 5 0 -7.5
      vertex 4.97261 0.522642 7.5
    endloop
  endfacet
  facet normal 0.987688 0.156434 0
    outer loop
      vertex 4.97261 0.522642 -7.5
      vertex 4.89074 1.03956 -7.5
      vertex 4.89074 1.03956 7.5
    endloop
  endfacet
  facet normal 0.987688 0.156434 0
    outer loop
      vertex 4.97261 0.522642 7.5
      vertex 4.97261 0.522642 -7.5
      vertex 4.89074 1.03956 7.5
    endloop
  endfacet
  facet normal 0.965926 0.258818 0
    outer loop
      vertex 4.89074 1.03956 -7.5
      vertex 4.75528 1.54508 -7.5
      vertex 4.75528 1.54508 7.5
    endloop
  endfacet
  facet normal 0.965926 0.258818 0
    outer loop
      vertex 4.89074 1.03956 7.5
      vertex 4.89074 1.03956 -7.5
      vertex 4.75528 1.54508 7.5
    endloop
  endfacet
  facet normal 0.93358 0.358369 0
    outer loop
      vertex 4.75528 1.54508 -7.5
      vertex 4.56773 2.03368 -7.5
      vertex 4.56773 2.03368 7.5
    endloop
  endfacet
  facet normal 0.93358 0.358369 0
    outer loop
      vertex 4.75528 1.54508 7.5
      vertex 4.75528 1.54508 -7.5
      vertex 4.56773 2.03368 7.5
    endloop
  endfacet
  facet normal 0.891007 0.45399 0
    outer loop
      vertex 4.56773 2.03368 -7.5
      vertex 4.33013 2.5 -7.5
      vertex 4.33013 2.5 7.5
    endloop
  endfacet
  facet normal 0.891007 0.45399 0
    outer loop
      vertex 4.56773 2.03368 7.5
      vertex 4.56773 2.03368 -7.5
      vertex 4.33013 2.5 7.5
    endloop
  endfacet
  facet normal 0.83867 0.544639 0
    outer loop
      vertex 4.33013 2.5 -7.5
      vertex 4.04508 2.93893 -7.5
      vertex 4.04508 2.93893 7.5
    endloop
  endfacet
  facet normal 0.83867 0.544639 0
    outer loop
      vertex 4.33013 2.5 7.5
      vertex 4.33013 2.5 -7.5
      vertex 4.04508 2.93893 7.5
    endloop
  endfacet
  facet normal 0.777146 0.62932 0
    outer loop
      vertex 4.04508 2.93893 -7.5
      vertex 3.71572 3.34565 -7.5
      vertex 3.71572 3.34565 7.5
    endloop
  endfacet
  facet normal 0.777146 0.62932 0
    outer loop
      vertex 4.04508 2.93893 7.5
      vertex 4.04508 2.93893 -7.5
      vertex 3.71572 3.34565 7.5
    endloop
  endfacet
  facet normal 0.707107 0.707107 0
    outer loop
      vertex 3.34565 3.71572 -7.5
      vertex 3.34565 3.71572 7.5
      vertex 3.71572 3.34565 -7.5
    endloop
  endfacet
  facet normal 0.707107 0.707107 0
    outer loop
      vertex 3.71572 3.34565 -7.5
      vertex 3.34565 3.71572 7.5
      vertex 3.71572 3.34565 7.5
    endloop
  endfacet
  facet normal 0.62932 0.777146 0
    outer loop
      vertex 2.93893 4.04508 -7.5
      vertex 2.93893 4.04508 7.5
      vertex 3.34565 3.71572 -7.5
    endloop
  endfacet
  facet normal 0.62932 0.777146 0
    outer loop
      vertex 3.34565 3.71572 -7.5
      vertex 2.93893 4.04508 7.5
      vertex 3.34565 3.71572 7.5
    endloop
  endfacet
  facet normal 0.544639 0.83867 0
    outer loop
      vertex 2.5 4.33013 -7.5
      vertex 2.5 4.33013 7.5
      vertex 2.93893 4.04508 -7.5
    endloop
  endfacet
  facet normal 0.544639 0.83867 0
    outer loop
      vertex 2.93893 4.04508 -7.5
      vertex 2.5 4.33013 7.5
      vertex 2.93893 4.04508 7.5
    endloop
  endfacet
  facet normal 0.45399 0.891007 0
    outer loop
      vertex 2.03368 4.56773 -7.5
      vertex 2.03368 4.56773 7.5
      vertex 2.5 4.33013 -7.5
    endloop
  endfacet
  facet normal 0.45399 0.891007 0
    outer loop
      vertex 2.5 4.33013 -7.5
      vertex 2.03368 4.56773 7.5
      vertex 2.5 4.33013 7.5
    endloop
  endfacet
  facet normal 0.358369 0.93358 0
    outer loop
      vertex 1.54508 4.75528 -7.5
      vertex 1.54508 4.75528 7.5
      vertex 2.03368 4.56773 -7.5
    endloop
  endfacet
  facet normal 0.358369 0.93358 0
    outer loop
      vertex 2.03368 4.56773 -7.5
      vertex 1.54508 4.75528 7.5
      vertex 2.03368 4.56773 7.5
    endloop
  endfacet
  facet normal 0.258818 0.965926 0
    outer loop
      vertex 1.03956 4.89074 -7.5
      vertex 1.03956 4.89074 7.5
      vertex 1.54508 4.75528 -7.5
    endloop
  endfacet
  facet normal 0.258818 0.965926 0
    outer loop
      vertex 1.54508 4.75528 -7.5
      vertex 1.03956 4.89074 7.5
      vertex 1.54508 4.75528 7.5
    endloop
  endfacet
  facet normal 0.156434 0.987688 0
    outer loop
      vertex 0.522642 4.97261 -7.5
      vertex 0.522642 4.97261 7.5
      vertex 1.03956 4.89074 -7.5
    endloop
  endfacet
  facet normal 0.156434 0.987688 0
    outer loop
      vertex 1.03956 4.89074 -7.5
      vertex 0.522642 4.97261 7.5
      vertex 1.03956 4.89074 7.5
    endloop
  endfacet
  facet normal 0.0523369 0.998629 0
    outer loop
      vertex 0 5 -7.5
      vertex 0 5 7.5
      vertex 0.522642 4.97261 -7.5
    endloop
  endfacet
  facet normal 0.0523369 0.998629 0
    outer loop
      vertex 0.522642 4.97261 -7.5
      vertex 0 5 7.5
      vertex 0.522642 4.97261 7.5
    endloop
  endfacet
  facet normal -0.0523369 0.998629 0
    outer loop
      vertex -0.522642 4.97261 -7.5
      vertex -0.522642 4.97261 7.5
      vertex 0 5 -7.5
    endloop
  endfacet
  facet normal -0.0523369 0.998629 0
    outer loop
      vertex 0 5 -7.5
      vertex -0.522642 4.97261 7.5
      vertex 0 5 7.5
    endloop
  endfacet
  facet normal -0.156434 0.987688 0
    outer loop
      vertex -1.03956 4.89074 -7.5
      vertex -1.03956 4.89074 7.5
      vertex -0.522642 4.97261 -7.5
    endloop
  endfacet
  facet normal -0.156434 0.987688 0
    outer loop
      vertex -0.522642 4.97261 -7.5
      vertex -1.03956 4.89074 7.5
      vertex -0.522642 4.97261 7.5
    endloop
  endfacet
  facet normal -0.258818 0.965926 0
    outer loop
      vertex -1.54508 4.75528 -7.5
      vertex -1.54508 4.75528 7.5
      vertex -1.03956 4.89074 -7.5
    endloop
  endfacet
  facet normal -0.258818 0.965926 0
    outer loop
      vertex -1.03956 4.89074 -7.5
      vertex -1.54508 4.75528 7.5
      vertex -1.03956 4.89074 7.5
    endloop
  endfacet
  facet normal -0.358369 0.93358 0
    outer loop
      vertex -2.03368 4.56773 -7.5
      vertex -2.03368 4.56773 7.5
      vertex -1.54508 4.75528 -7.5
    endloop
  endfacet
  facet normal -0.358369 0.93358 0
    outer loop
      vertex -1.54508 4.75528 -7.5
      vertex -2.03368 4.56773 7.5
      vertex -1.54508 4.75528 7.5
    endloop
  endfacet
  facet normal -0.45399 0.891007 0
    outer loop
      vertex -2.5 4.33013 -7.5
      vertex -2.5 4.33013 7.5
      vertex -2.03368 4.56773 -7.5
    endloop
  endfacet
  facet normal -0.45399 0.891007 0
    outer loop
      vertex -2.03368 4.56773 -7.5
      vertex -2.5 4.33013 7.5
      vertex -2.03368 4.56773 7.5
    endloop
  endfacet
  facet normal -0.544639 0.83867 0
    outer loop
      vertex -2.93893 4.04508 -7.5
      vertex -2.93893 4.04508 7.5
      vertex -2.5 4.33013 -7.5
    endloop
  endfacet
  facet normal -0.544639 0.83867 0
    outer loop
      vertex -2.5 4.33013 -7.5
      vertex -2.93893 4.04508 7.5
      vertex -2.5 4.33013 7.5
    endloop
  endfacet
  facet normal -0.62932 0.777146 0
    outer loop
      vertex -3.34565 3.71572 -7.5
      vertex -3.34565 3.71572 7.5
      vertex -2.93893 4.04508 -7.5
    endloop
  endfacet
  facet normal -0.62932 0.777146 0
    outer loop
      vertex -2.93893 4.04508 -7.5
      vertex -3.34565 3.71572 7.5
      vertex -2.93893 4.04508 7.5
    endloop
  endfacet
  facet normal -0.707107 0.707107 0
    outer loop
      vertex -3.71572 3.34565 -7.5
      vertex -3.71572 3.34565 7.5
      vertex -3.34565 3.71572 -7.5
    endloop
  endfacet
  facet normal -0.707107 0.707107 0
    outer loop
      vertex -3.34565 3.71572 -7.5
      vertex -3.71572 3.34565 7.5
      vertex -3.34565 3.71572 7.5
    endloop
  endfacet
  facet normal -0.777146 0.62932 0
    outer loop
      vertex -4.04508 2.93893 -7.5
      vertex -4.04508 2.93893 7.5
      vertex -3.71572 3.34565 -7.5
    endloop
  endfacet
  facet normal -0.777146 0.62932 0
    outer loop
      vertex -3.71572 3.34565 -7.5
      vertex -4.04508 2.93893 7.5
      vertex -3.71572 3.34565 7.5
    endloop
  endfacet
  facet normal -0.83867 0.544639 0
    outer loop
      vertex -4.33013 2.5 -7.5
      vertex -4.33013 2.5 7.5
      vertex -4.04508 2.93893 -7.5
    endloop
  endfacet
  facet normal -0.83867 0.544639 0
    outer loop
      vertex -4.04508 2.93893 -7.5
      vertex -4.33013 2.5 7.5
      vertex -4.04508 2.93893 7.5
    endloop
  endfacet
  facet normal -0.891007 0.45399 0
    outer loop
      vertex -4.56773 2.03368 -7.5
      vertex -4.56773 2.03368 7.5
      vertex -4.33013 2.5 -7.5
    endloop
  endfacet
  facet normal -0.891007 0.45399 0
    outer loop
      vertex -4.33013 2.5 -7.5
      vertex -4.56773 2.03368 7.5
      vertex -4.33013 2.5 7.5
    endloop
  endfacet
  facet normal -0.93358 0.358369 0
    outer loop
      vertex -4.75528 1.54508 -7.5
      vertex -4.75528 1.54508 7.5
      vertex -4.56773 2.03368 -7.5
    endloop
  endfacet
  facet normal -0.93358 0.358369 0
    outer loop
      vertex -4.56773 2.03368 -7.5
      vertex -4.75528 1.54508 7.5
      vertex -4.56773 2.03368 7.5
    endloop
  endfacet
  facet normal -0.965926 0.258818 0
    outer loop
      vertex -4.89074 1.03956 -7.5
      vertex -4.89074 1.03956 7.5
      vertex -4.75528 1.54508 -7.5
    endloop
  endfacet
  facet normal -0.965926 0.258818 0
    outer loop
      vertex -4.75528 1.54508 -7.5
      vertex -4.89074 1.03956 7.5
      vertex -4.75528 1.54508 7.5
    endloop
  endfacet
  facet normal -0.987688 0.156434 0
    outer loop
      vertex -4.97261 0.522642 -7.5
      vertex -4.97261 0.522642 7.5
      vertex -4.89074 1.03956 -7.5
    endloop
  endfacet
  facet normal -0.987688 0.156434 0
    outer loop
      vertex -4.89074 1.03956 -7.5
      vertex -4.97261 0.522642 7.5
      vertex -4.89074 1.03956 7.5
    endloop
  endfacet
  facet normal 0.99863 0.0523349 0
    outer loop
      vertex -2 0 7.5
      vertex -1.98904 -0.209057 7.5
      vertex -1.98904 -0.209057 -7.5
    endloop
  endfacet
  facet normal 0.99863 0.0523349 0
    outer loop
      vertex -2 0 -7.5
      vertex -2 0 7.5
      vertex -1.98904 -0.209057 -7.5
    endloop
  endfacet
  facet normal 0.99863 -0.0523349 0
    outer loop
      vertex -1.98904 0.209057 -7.5
      vertex -1.98904 0.209057 7.5
      vertex -2 0 7.5
    endloop
  endfacet
  facet normal 0.99863 -0.0523349 0
    outer loop
      vertex -2 0 -7.5
      vertex -1.98904 0.209057 -7.5
      vertex -2 0 7.5
    endloop
  endfacet
  facet normal 0.987688 -0.156437 0
    outer loop
      vertex -1.95629 0.415823 -7.5
      vertex -1.95629 0.415823 7.5
      vertex -1.98904 0.209057 7.5
    endloop
  endfacet
  facet normal 0.987688 -0.156437 0
    outer loop
      vertex -1.98904 0.209057 -7.5
      vertex -1.95629 0.415823 -7.5
      vertex -1.98904 0.209057 7.5
    endloop
  endfacet
  facet normal 0.965926 -0.258818 0
    outer loop
      vertex -1.90211 0.618034 -7.5
      vertex -1.90211 0.618034 7.5
      vertex -1.95629 0.415823 7.5
    endloop
  endfacet
  facet normal 0.965926 -0.258818 0
    outer loop
      vertex -1.95629 0.415823 -7.5
      vertex -1.90211 0.618034 -7.5
      vertex -1.95629 0.415823 7.5
    endloop
  endfacet
  facet normal 0.93358 -0.358368 0
    outer loop
      vertex -1.82709 0.813473 -7.5
      vertex -1.82709 0.813473 7.5
      vertex -1.90211 0.618034 7.5
    endloop
  endfacet
  facet normal 0.93358 -0.358368 0
    outer loop
      vertex -1.90211 0.618034 -7.5
      vertex -1.82709 0.813473 -7.5
      vertex -1.90211 0.618034 7.5
    endloop
  endfacet
  facet normal 0.891007 -0.45399 0
    outer loop
      vertex -1.73205 1 -7.5
      vertex -1.73205 1 7.5
      vertex -1.82709 0.813473 7.5
    endloop
  endfacet
  facet normal 0.891007 -0.45399 0
    outer loop
      vertex -1.82709 0.813473 -7.5
      vertex -1.73205 1 -7.5
      vertex -1.82709 0.813473 7.5
    endloop
  endfacet
  facet normal 0.838671 -0.544639 0
    outer loop
      vertex -1.61803 1.17557 -7.5
      vertex -1.61803 1.17557 7.5
      vertex -1.73205 1 7.5
    endloop
  endfacet
  facet normal 0.838671 -0.544639 0
    outer loop
      vertex -1.73205 1 -7.5
      vertex -1.61803 1.17557 -7.5
      vertex -1.73205 1 7.5
    endloop
  endfacet
  facet normal 0.777145 -0.629321 0
    outer loop
      vertex -1.48629 1.33826 -7.5
      vertex -1.48629 1.33826 7.5
      vertex -1.61803 1.17557 7.5
    endloop
  endfacet
  facet normal 0.777145 -0.629321 0
    outer loop
      vertex -1.61803 1.17557 -7.5
      vertex -1.48629 1.33826 -7.5
      vertex -1.61803 1.17557 7.5
    endloop
  endfacet
  facet normal 0.707107 -0.707107 0
    outer loop
      vertex -1.33826 1.48629 -7.5
      vertex -1.33826 1.48629 7.5
      vertex -1.48629 1.33826 7.5
    endloop
  endfacet
  facet normal 0.707107 -0.707107 0
    outer loop
      vertex -1.48629 1.33826 -7.5
      vertex -1.33826 1.48629 -7.5
      vertex -1.48629 1.33826 7.5
    endloop
  endfacet
  facet normal 0.629321 -0.777145 0
    outer loop
      vertex -1.17557 1.61803 -7.5
      vertex -1.17557 1.61803 7.5
      vertex -1.33826 1.48629 7.5
    endloop
  endfacet
  facet normal 0.629321 -0.777145 0
    outer loop
      vertex -1.33826 1.48629 -7.5
      vertex -1.17557 1.61803 -7.5
      vertex -1.33826 1.48629 7.5
    endloop
  endfacet
  facet normal 0.544639 -0.838671 0
    outer loop
      vertex -1 1.73205 -7.5
      vertex -1 1.73205 7.5
      vertex -1.17557 1.61803 7.5
    endloop
  endfacet
  facet normal 0.544639 -0.838671 0
    outer loop
      vertex -1.17557 1.61803 -7.5
      vertex -1 1.73205 -7.5
      vertex -1.17557 1.61803 7.5
    endloop
  endfacet
  facet normal 0.45399 -0.891007 0
    outer loop
      vertex -0.813473 1.82709 -7.5
      vertex -0.813473 1.82709 7.5
      vertex -1 1.73205 7.5
    endloop
  endfacet
  facet normal 0.45399 -0.891007 0
    outer loop
      vertex -1 1.73205 -7.5
      vertex -0.813473 1.82709 -7.5
      vertex -1 1.73205 7.5
    endloop
  endfacet
  facet normal 0.358368 -0.93358 0
    outer loop
      vertex -0.618034 1.90211 -7.5
      vertex -0.618034 1.90211 7.5
      vertex -0.813473 1.82709 7.5
    endloop
  endfacet
  facet normal 0.358368 -0.93358 0
    outer loop
      vertex -0.813473 1.82709 -7.5
      vertex -0.618034 1.90211 -7.5
      vertex -0.813473 1.82709 7.5
    endloop
  endfacet
  facet normal 0.258818 -0.965926 0
    outer loop
      vertex -0.415823 1.95629 -7.5
      vertex -0.415823 1.95629 7.5
      vertex -0.618034 1.90211 7.5
    endloop
  endfacet
  facet normal 0.258818 -0.965926 0
    outer loop
      vertex -0.618034 1.90211 -7.5
      vertex -0.415823 1.95629 -7.5
      vertex -0.618034 1.90211 7.5
    endloop
  endfacet
  facet normal 0.156437 -0.987688 0
    outer loop
      vertex -0.209057 1.98904 -7.5
      vertex -0.209057 1.98904 7.5
      vertex -0.415823 1.95629 7.5
    endloop
  endfacet
  facet normal 0.156437 -0.987688 0
    outer loop
      vertex -0.415823 1.95629 -7.5
      vertex -0.209057 1.98904 -7.5
      vertex -0.415823 1.95629 7.5
    endloop
  endfacet
  facet normal 0.0523349 -0.99863 0
    outer loop
      vertex 0 2 -7.5
      vertex 0 2 7.5
      vertex -0.209057 1.98904 7.5
    endloop
  endfacet
  facet normal 0.0523349 -0.99863 0
    outer loop
      vertex -0.209057 1.98904 -7.5
      vertex 0 2 -7.5
      vertex -0.209057 1.98904 7.5
    endloop
  endfacet
  facet normal -0.0523349 -0.99863 0
    outer loop
      vertex 0.209057 1.98904 -7.5
      vertex 0.209057 1.98904 7.5
      vertex 0 2 7.5
    endloop
  endfacet
  facet normal -0.0523349 -0.99863 0
    outer loop
      vertex 0 2 -7.5
      vertex 0.209057 1.98904 -7.5
      vertex 0 2 7.5
    endloop
  endfacet
  facet normal -0.156437 -0.987688 0
    outer loop
      vertex 0.415823 1.95629 -7.5
      vertex 0.415823 1.95629 7.5
      vertex 0.209057 1.98904 7.5
    endloop
  endfacet
  facet normal -0.156437 -0.987688 0
    outer loop
      vertex 0.209057 1.98904 -7.5
      vertex 0.415823 1.95629 -7.5
      vertex 0.209057 1.98904 7.5
    endloop
  endfacet
  facet normal -0.258818 -0.965926 0
    outer loop
      vertex 0.618034 1.90211 -7.5
      vertex 0.618034 1.90211 7.5
      vertex 0.415823 1.95629 7.5
    endloop
  endfacet
  facet normal -0.258818 -0.965926 0
    outer loop
      vertex 0.415823 1.95629 -7.5
      vertex 0.618034 1.90211 -7.5
      vertex 0.415823 1.95629 7.5
    endloop
  endfacet
  facet normal -0.358368 -0.93358 0
    outer loop
      vertex 0.813473 1.82709 -7.5
      vertex 0.813473 1.82709 7.5
      vertex 0.618034 1.90211 7.5
    endloop
  endfacet
  facet normal -0.358368 -0.93358 0
    outer loop
      vertex 0.618034 1.90211 -7.5
      vertex 0.813473 1.82709 -7.5
      vertex 0.618034 1.90211 7.5
    endloop
  endfacet
  facet normal -0.45399 -0.891007 0
    outer loop
      vertex 1 1.73205 -7.5
      vertex 1 1.73205 7.5
      vertex 0.813473 1.82709 7.5
    endloop
  endfacet
  facet normal -0.45399 -0.891007 0
    outer loop
      vertex 0.813473 1.82709 -7.5
      vertex 1 1.73205 -7.5
      vertex 0.813473 1.82709 7.5
    endloop
  endfacet
  facet normal -0.544639 -0.838671 0
    outer loop
      vertex 1.17557 1.61803 -7.5
      vertex 1.17557 1.61803 7.5
      vertex 1 1.73205 7.5
    endloop
  endfacet
  facet normal -0.544639 -0.838671 0
    outer loop
      vertex 1 1.73205 -7.5
      vertex 1.17557 1.61803 -7.5
      vertex 1 1.73205 7.5
    endloop
  endfacet
  facet normal -0.629321 -0.777145 0
    outer loop
      vertex 1.33826 1.48629 -7.5
      vertex 1.33826 1.48629 7.5
      vertex 1.17557 1.61803 7.5
    endloop
  endfacet
  facet normal -0.629321 -0.777145 0
    outer loop
      vertex 1.17557 1.61803 -7.5
      vertex 1.33826 1.48629 -7.5
      vertex 1.17557 1.61803 7.5
    endloop
  endfacet
  facet normal -0.707107 -0.707107 0
    outer loop
      vertex 1.48629 1.33826 -7.5
      vertex 1.48629 1.33826 7.5
      vertex 1.33826 1.48629 7.5
    endloop
  endfacet
  facet normal -0.707107 -0.707107 0
    outer loop
      vertex 1.33826 1.48629 -7.5
      vertex 1.48629 1.33826 -7.5
      vertex 1.33826 1.48629 7.5
    endloop
  endfacet
  facet normal -0.777145 -0.629321 0
    outer loop
      vertex 1.61803 1.17557 7.5
      vertex 1.48629 1.33826 7.5
      vertex 1.61803 1.17557 -7.5
    endloop
  endfacet
  facet normal -0.777145 -0.629321 0
    outer loop
      vertex 1.61803 1.17557 -7.5
      vertex 1.48629 1.33826 7.5
      vertex 1.48629 1.33826 -7.5
    endloop
  endfacet
  facet normal -0.838671 -0.544639 0
    outer loop
      vertex 1.73205 1 7.5
      vertex 1.61803 1.17557 7.5
      vertex 1.73205 1 -7.5
    endloop
  endfacet
  facet normal -0.838671 -0.544639 0
    outer loop
      vertex 1.73205 1 -7.5
      vertex 1.61803 1.17557 7.5
      vertex 1.61803 1.17557 -7.5
    endloop
  endfacet
  facet normal -0.891007 -0.45399 0
    outer loop
      vertex 1.82709 0.813473 7.5
      vertex 1.73205 1 7.5
      vertex 1.82709 0.813473 -7.5
    endloop
  endfacet
  facet normal -0.891007 -0.45399 0
    outer loop
      vertex 1.82709 0.813473 -7.5
      vertex 1.73205 1 7.5
      vertex 1.73205 1 -7.5
    endloop
  endfacet
  facet normal -0.93358 -0.358368 0
    outer loop
      vertex 1.90211 0.618034 7.5
      vertex 1.82709 0.813473 7.5
      vertex 1.90211 0.618034 -7.5
    endloop
  endfacet
  facet normal -0.93358 -0.358368 0
    outer loop
      vertex 1.90211 0.618034 -7.5
      vertex 1.82709 0.813473 7.5
      vertex 1.82709 0.813473 -7.5
    endloop
  endfacet
  facet normal -0.965926 -0.258818 0
    outer loop
      vertex 1.95629 0.415823 7.5
      vertex 1.90211 0.618034 7.5
      vertex 1.95629 0.415823 -7.5
    endloop
  endfacet
  facet normal -0.965926 -0.258818 0
    outer loop
      vertex 1.95629 0.415823 -7.5
      vertex 1.90211 0.618034 7.5
      vertex 1.90211 0.618034 -7.5
    endloop
  endfacet
  facet normal -0.987688 -0.156437 0
    outer loop
      vertex 1.98904 0.209057 7.5
      vertex 1.95629 0.415823 7.5
      vertex 1.98904 0.209057 -7.5
    endloop
  endfacet
  facet normal -0.987688 -0.156437 0
    outer loop
      vertex 1.98904 0.209057 -7.5
      vertex 1.95629 0.415823 7.5
      vertex 1.95629 0.415823 -7.5
    endloop
  endfacet
  facet normal -0.99863 -0.0523349 0
    outer loop
      vertex 2 0 7.5
      vertex 1.98904 0.209057 7.5
      vertex 2 0 -7.5
    endloop
  endfacet
  facet normal -0.99863 -0.0523349 0
    outer loop
      vertex 2 0 -7.5
      vertex 1.98904 0.209057 7.5
      vertex 1.98904 0.209057 -7.5
    endloop
  endfacet
  facet normal -0.99863 0.0523349 0
    outer loop
      vertex 2 0 7.5
      vertex 2 0 -7.5
      vertex 1.98904 -0.209057 7.5
    endloop
  endfacet
  facet normal -0.99863 0.0523349 0
    outer loop
      vertex 1.98904 -0.209057 7.5
      vertex 2 0 -7.5
      vertex 1.98904 -0.209057 -7.5
    endloop
  endfacet
  facet normal -0.987688 0.156437 0
    outer loop
      vertex 1.98904 -0.209057 7.5
      vertex 1.98904 -0.209057 -7.5
      vertex 1.95629 -0.415823 7.5
    endloop
  endfacet
  facet normal -0.987688 0.156437 0
    outer loop
      vertex 1.95629 -0.415823 7.5
      vertex 1.98904 -0.209057 -7.5
      vertex 1.95629 -0.415823 -7.5
    endloop
  endfacet
  facet normal -0.965926 0.258818 0
    outer loop
      vertex 1.95629 -0.415823 7.5
      vertex 1.95629 -0.415823 -7.5
      vertex 1.90211 -0.618034 7.5
    endloop
  endfacet
  facet normal -0.965926 0.258818 0
    outer loop
      vertex 1.90211 -0.618034 7.5
      vertex 1.95629 -0.415823 -7.5
      vertex 1.90211 -0.618034 -7.5
    endloop
  endfacet
  facet normal -0.93358 0.358368 0
    outer loop
      vertex 1.90211 -0.618034 7.5
      vertex 1.90211 -0.618034 -7.5
      vertex 1.82709 -0.813473 7.5
    endloop
  endfacet
  facet normal -0.93358 0.358368 0
    outer loop
      vertex 1.82709 -0.813473 7.5
      vertex 1.90211 -0.618034 -7.5
      vertex 1.82709 -0.813473 -7.5
    endloop
  endfacet
  facet normal -0.891007 0.45399 0
    outer loop
      vertex 1.82709 -0.813473 7.5
      vertex 1.82709 -0.813473 -7.5
      vertex 1.73205 -1 7.5
    endloop
  endfacet
  facet normal -0.891007 0.45399 0
    outer loop
      vertex 1.73205 -1 7.5
      vertex 1.82709 -0.813473 -7.5
      vertex 1.73205 -1 -7.5
    endloop
  endfacet
  facet normal -0.838671 0.544639 0
    outer loop
      vertex 1.73205 -1 7.5
      vertex 1.73205 -1 -7.5
      vertex 1.61803 -1.17557 7.5
    endloop
  endfacet
  facet normal -0.838671 0.544639 0
    outer loop
      vertex 1.61803 -1.17557 7.5
      vertex 1.73205 -1 -7.5
      vertex 1.61803 -1.17557 -7.5
    endloop
  endfacet
  facet normal -0.777145 0.629321 0
    outer loop
      vertex 1.61803 -1.17557 7.5
      vertex 1.61803 -1.17557 -7.5
      vertex 1.48629 -1.33826 7.5
    endloop
  endfacet
  facet normal -0.777145 0.629321 0
    outer loop
      vertex 1.48629 -1.33826 7.5
      vertex 1.61803 -1.17557 -7.5
      vertex 1.48629 -1.33826 -7.5
    endloop
  endfacet
  facet normal -0.707107 0.707107 0
    outer loop
      vertex 1.48629 -1.33826 7.5
      vertex 1.48629 -1.33826 -7.5
      vertex 1.33826 -1.48629 7.5
    endloop
  endfacet
  facet normal -0.707107 0.707107 0
    outer loop
      vertex 1.33826 -1.48629 7.5
      vertex 1.48629 -1.33826 -7.5
      vertex 1.33826 -1.48629 -7.5
    endloop
  endfacet
  facet normal -0.629321 0.777145 0
    outer loop
      vertex 1.33826 -1.48629 7.5
      vertex 1.33826 -1.48629 -7.5
      vertex 1.17557 -1.61803 7.5
    endloop
  endfacet
  facet normal -0.629321 0.777145 0
    outer loop
      vertex 1.17557 -1.61803 7.5
      vertex 1.33826 -1.48629 -7.5
      vertex 1.17557 -1.61803 -7.5
    endloop
  endfacet
  facet normal -0.544639 0.838671 0
    outer loop
      vertex 1.17557 -1.61803 7.5
      vertex 1.17557 -1.61803 -7.5
      vertex 1 -1.73205 7.5
    endloop
  endfacet
  facet normal -0.544639 0.838671 0
    outer loop
      vertex 1 -1.73205 7.5
      vertex 1.17557 -1.61803 -7.5
      vertex 1 -1.73205 -7.5
    endloop
  endfacet
  facet normal -0.45399 0.891007 0
    outer loop
      vertex 1 -1.73205 7.5
      vertex 1 -1.73205 -7.5
      vertex 0.813473 -1.82709 7.5
    endloop
  endfacet
  facet normal -0.45399 0.891007 0
    outer loop
      vertex 0.813473 -1.82709 7.5
      vertex 1 -1.73205 -7.5
      vertex 0.813473 -1.82709 -7.5
    endloop
  endfacet
  facet normal -0.358368 0.93358 0
    outer loop
      vertex 0.813473 -1.82709 7.5
      vertex 0.813473 -1.82709 -7.5
      vertex 0.618034 -1.90211 7.5
    endloop
  endfacet
  facet normal -0.358368 0.93358 0
    outer loop
      vertex 0.618034 -1.90211 7.5
      vertex 0.813473 -1.82709 -7.5
      vertex 0.618034 -1.90211 -7.5
    endloop
  endfacet
  facet normal -0.258818 0.965926 0
    outer loop
      vertex 0.618034 -1.90211 7.5
      vertex 0.618034 -1.90211 -7.5
      vertex 0.415823 -1.95629 7.5
    endloop
  endfacet
  facet normal -0.258818 0.965926 0
    outer loop
      vertex 0.415823 -1.95629 7.5
      vertex 0.618034 -1.90211 -7.5
      vertex 0.415823 -1.95629 -7.5
    endloop
  endfacet
  facet normal -0.156437 0.987688 0
    outer loop
      vertex 0.415823 -1.95629 7.5
      vertex 0.415823 -1.95629 -7.5
      vertex 0.209057 -1.98904 7.5
    endloop
  endfacet
  facet normal -0.156437 0.987688 0
    outer loop
      vertex 0.209057 -1.98904 7.5
      vertex 0.415823 -1.95629 -7.5
      vertex 0.209057 -1.98904 -7.5
    endloop
  endfacet
  facet normal -0.0523349 0.99863 0
    outer loop
      vertex 0.209057 -1.98904 7.5
      vertex 0.209057 -1.98904 -7.5
      vertex 0 -2 7.5
    endloop
  endfacet
  facet normal -0.0523349 0.99863 0
    outer loop
      vertex 0 -2 7.5
      vertex 0.209057 -1.98904 -7.5
      vertex 0 -2 -7.5
    endloop
  endfacet
  facet normal 0.0523349 0.99863 0
    outer loop
      vertex 0 -2 7.5
      vertex 0 -2 -7.5
      vertex -0.209057 -1.98904 7.5
    endloop
  endfacet
  facet normal 0.0523349 0.99863 0
    outer loop
      vertex -0.209057 -1.98904 7.5
      vertex 0 -2 -7.5
      vertex -0.209057 -1.98904 -7.5
    endloop
  endfacet
  facet normal 0.156437 0.987688 0
    outer loop
      vertex -0.209057 -1.98904 7.5
      vertex -0.209057 -1.98904 -7.5
      vertex -0.415823 -1.95629 7.5
    endloop
  endfacet
  facet normal 0.156437 0.987688 0
    outer loop
      vertex -0.415823 -1.95629 7.5
      vertex -0.209057 -1.98904 -7.5
      vertex -0.415823 -1.95629 -7.5
    endloop
  endfacet
  facet normal 0.258818 0.965926 0
    outer loop
      vertex -0.415823 -1.95629 7.5
      vertex -0.415823 -1.95629 -7.5
      vertex -0.618034 -1.90211 7.5
    endloop
  endfacet
  facet normal 0.258818 0.965926 0
    outer loop
      vertex -0.618034 -1.90211 7.5
      vertex -0.415823 -1.95629 -7.5
      vertex -0.618034 -1.90211 -7.5
    endloop
  endfacet
  facet normal 0.358368 0.93358 0
    outer loop
      vertex -0.618034 -1.90211 7.5
      vertex -0.618034 -1.90211 -7.5
      vertex -0.813473 -1.82709 7.5
    endloop
  endfacet
  facet normal 0.358368 0.93358 0
    outer loop
      vertex -0.813473 -1.82709 7.5
      vertex -0.618034 -1.90211 -7.5
      vertex -0.813473 -1.82709 -7.5
    endloop
  endfacet
  facet normal 0.45399 0.891007 0
    outer loop
      vertex -0.813473 -1.82709 7.5
      vertex -0.813473 -1.82709 -7.5
      vertex -1 -1.73205 7.5
    endloop
  endfacet
  facet normal 0.45399 0.891007 0
    outer loop
      vertex -1 -1.73205 7.5
      vertex -0.813473 -1.82709 -7.5
      vertex -1 -1.73205 -7.5
    endloop
  endfacet
  facet normal 0.544639 0.838671 0
    outer loop
      vertex -1 -1.73205 7.5
      vertex -1 -1.73205 -7.5
      vertex -1.17557 -1.61803 7.5
    endloop
  endfacet
  facet normal 0.544639 0.838671 0
    outer loop
      vertex -1.17557 -1.61803 7.5
      vertex -1 -1.73205 -7.5
      vertex -1.17557 -1.61803 -7.5
    endloop
  endfacet
  facet normal 0.629321 0.777145 0
    outer loop
      vertex -1.17557 -1.61803 7.5
      vertex -1.17557 -1.61803 -7.5
      vertex -1.33826 -1.48629 7.5
    endloop
  endfacet
  facet normal 0.629321 0.777145 0
    outer loop
      vertex -1.33826 -1.48629 7.5
      vertex -1.17557 -1.61803 -7.5
      vertex -1.33826 -1.48629 -7.5
    endloop
  endfacet
  facet normal 0.707107 0.707107 0
    outer loop
      vertex -1.33826 -1.48629 7.5
      vertex -1.33826 -1.48629 -7.5
      vertex -1.48629 -1.33826 7.5
    endloop
  endfacet
  facet normal 0.707107 0.707107 0
    outer loop
      vertex -1.48629 -1.33826 7.5
      vertex -1.33826 -1.48629 -7.5
      vertex -1.48629 -1.33826 -7.5
    endloop
  endfacet
  facet normal 0.777145 0.629321 0
    outer loop
      vertex -1.61803 -1.17557 7.5
      vertex -1.48629 -1.33826 7.5
      vertex -1.48629 -1.33826 -7.5
    endloop
  endfacet
  facet normal 0.777145 0.629321 0
    outer loop
      vertex -1.61803 -1.17557 -7.5
      vertex -1.61803 -1.17557 7.5
      vertex -1.48629 -1.33826 -7.5
    endloop
  endfacet
  facet normal 0.838671 0.544639 0
    outer loop
      vertex -1.73205 -1 7.5
      vertex -1.61803 -1.17557 7.5
      vertex -1.61803 -1.17557 -7.5
    endloop
  endfacet
  facet normal 0.838671 0.544639 0
    outer loop
      vertex -1.73205 -1 -7.5
      vertex -1.73205 -1 7.5
      vertex -1.61803 -1.17557 -7.5
    endloop
  endfacet
  facet normal 0.891007 0.45399 0
    outer loop
      vertex -1.82709 -0.813473 7.5
      vertex -1.73205 -1 7.5
      vertex -1.73205 -1 -7.5
    endloop
  endfacet
  facet normal 0.891007 0.45399 0
    outer loop
      vertex -1.82709 -0.813473 -7.5
      vertex -1.82709 -0.813473 7.5
      vertex -1.73205 -1 -7.5
    endloop
  endfacet
  facet normal 0.93358 0.358368 0
    outer loop
      vertex -1.90211 -0.618034 7.5
      vertex -1.82709 -0.813473 7.5
      vertex -1.82709 -0.813473 -7.5
    endloop
  endfacet
  facet normal 0.93358 0.358368 0
    outer loop
      vertex -1.90211 -0.618034 -7.5
      vertex -1.90211 -0.618034 7.5
      vertex -1.82709 -0.813473 -7.5
    endloop
  endfacet
  facet normal 0.965926 0.258818 0
    outer loop
      vertex -1.95629 -0.415823 7.5
      vertex -1.90211 -0.618034 7.5
      vertex -1.90211 -0.618034 -7.5
    endloop
  endfacet
  facet normal 0.965926 0.258818 0
    outer loop
      vertex -1.95629 -0.415823 -7.5
      vertex -1.95629 -0.415823 7.5
      vertex -1.90211 -0.618034 -7.5
    endloop
  endfacet
  facet normal 0.987688 0.156437 0
    outer loop
      vertex -1.98904 -0.209057 7.5
      vertex -1.95629 -0.415823 7.5
      vertex -1.95629 -0.415823 -7.5
    endloop
  endfacet
  facet normal 0.987688 0.156437 0
    outer loop
      vertex -1.98904 -0.209057 -7.5
      vertex -1.98904 -0.209057 7.5
      vertex -1.95629 -0.415823 -7.5
    endloop
  endfacet
  facet normal 0 0 1
    outer loop
      vertex -4.97261 0.522642 7.5
      vertex -5 0 7.5
      vertex -4.97261 -0.522642 7.5
    endloop
  endfacet
  facet normal 0 0 1
    outer loop
      vertex -4.75528 -1.54508 7.5
      vertex -4.97261 0.522642 7.5
      vertex -4.89074 -1.03956 7.5
    endloop
  endfacet
  facet normal 0 0 1
    outer loop
      vertex -4.89074 -1.03956 7.5
      vertex -4.97261 0.522642 7.5
      vertex -4.97261 -0.522642 7.5
    endloop
  endfacet
  facet normal 0 0 1
    outer loop
      vertex -4.56773 -2.03368 7.5
      vertex -4.97261 0.522642 7.5
      vertex -4.75528 -1.54508 7.5
    endloop
  endfacet
  facet normal 0 0 1
    outer loop
      vertex -4.33013 -2.5 7.5
      vertex -4.97261 0.522642 7.5
      vertex -4.56773 -2.03368 7.5
    endloop
  endfacet
  facet normal 0 0 1
    outer loop
      vertex -4.04508 -2.93893 7.5
      vertex -4.97261 0.522642 7.5
      vertex -4.33013 -2.5 7.5
    endloop
  endfacet
  facet normal 0 0 1
    outer loop
      vertex -3.71572 -3.34565 7.5
      vertex -4.97261 0.522642 7.5
      vertex -4.04508 -2.93893 7.5
    endloop
  endfacet
  facet normal 0 0 1
    outer loop
      vertex -3.34565 -3.71572 7.5
      vertex -4.97261 0.522642 7.5
      vertex -3.71572 -3.34565 7.5
    endloop
  endfacet
  facet normal 0 0 1
    outer loop
      vertex -2.93893 -4.04508 7.5
      vertex -4.97261 0.522642 7.5
      vertex -3.34565 -3.71572 7.5
    endloop
  endfacet
  facet normal 0 0 1
    outer loop
      vertex -2.5 -4.33013 7.5
      vertex -4.97261 0.522642 7.5
      vertex -2.93893 -4.04508 7.5
    endloop
  endfacet
  facet normal 0 0 1
    outer loop
      vertex -2.03368 -4.56773 7.5
      vertex -4.97261 0.522642 7.5
      vertex -2.5 -4.33013 7.5
    endloop
  endfacet
  facet normal 0 0 1
    outer loop
      vertex -1.54508 -4.75528 7.5
      vertex -4.97261 0.522642 7.5
      vertex -2.03368 -4.56773 7.5
    endloop
  endfacet
  facet normal 0 0 1
    outer loop
      vertex -1.03956 -4.89074 7.5
      vertex -4.97261 0.522642 7.5
      vertex -1.54508 -4.75528 7.5
    endloop
  endfacet
  facet normal 0 0 1
    outer loop
      vertex -0.522642 -4.97261 7.5
      vertex -4.97261 0.522642 7.5
      vertex -1.03956 -4.89074 7.5
    endloop
  endfacet
  facet normal 0 0 1
    outer loop
      vertex 0 -5 7.5
      vertex -4.97261 0.522642 7.5
      vertex -0.522642 -4.97261 7.5
    endloop
  endfacet
  facet normal 0 0 1
    outer loop
      vertex 0.522642 -4.97261 7.5
      vertex -4.97261 0.522642 7.5
      vertex 0 -5 7.5
    endloop
  endfacet
  facet normal 0 0 1
    outer loop
      vertex 1.03956 -4.89074 7.5
      vertex -4.97261 0.522642 7.5
      vertex 0.522642 -4.97261 7.5
    endloop
  endfacet
  facet normal 0 0 1
    outer loop
      vertex 1.54508 -4.75528 7.5
      vertex -4.97261 0.522642 7.5
      vertex 1.03956 -4.89074 7.5
    endloop
  endfacet
  facet normal 0 0 1
    outer loop
      vertex 2.03368 -4.56773 7.5
      vertex -4.97261 0.522642 7.5
      vertex 1.54508 -4.75528 7.5
    endloop
  endfacet
  facet normal 0 0 1
    outer loop
      vertex 2.5 -4.33013 7.5
      vertex -4.97261 0.522642 7.5
      vertex 2.03368 -4.56773 7.5
    endloop
  endfacet
  facet normal 0 0 1
    outer loop
      vertex 2.93893 -4.04508 7.5
      vertex -4.97261 0.522642 7.5
      vertex 2.5 -4.33013 7.5
    endloop
  endfacet
  facet normal 0 0 1
    outer loop
      vertex -1 -1.73205 7.5
      vertex -4.97261 0.522642 7.5
      vertex 2.93893 -4.04508 7.5
    endloop
  endfacet
  facet normal 0 0 1
    outer loop
      vertex -1 -1.73205 7.5
      vertex -1.17557 -1.61803 7.5
      vertex -4.97261 0.522642 7.5
    endloop
  endfacet
  facet normal 0 0 1
    outer loop
      vertex 0 -2 7.5
      vertex -0.209057 -1.98904 7.5
      vertex 3.34565 -3.71572 7.5
    endloop
  endfacet
  facet normal 0 0 1
    outer loop
      vertex 0.618034 -1.90211 7.5
      vertex 0.415823 -1.95629 7.5
      vertex 3.71572 -3.34565 7.5
    endloop
  endfacet
  facet normal 0 0 1
    outer loop
      vertex 1 -1.73205 7.5
      vertex 0.813473 -1.82709 7.5
      vertex 4.04508 -2.93893 7.5
    endloop
  endfacet
  facet normal 0 0 1
    outer loop
      vertex 1.61803 -1.17557 7.5
      vertex 1.48629 -1.33826 7.5
      vertex 4.56773 -2.03368 7.5
    endloop
  endfacet
  facet normal 0 0 1
    outer loop
      vertex 2 0 7.5
      vertex 1.98904 -0.209057 7.5
      vertex 4.97261 -0.522642 7.5
    endloop
  endfacet
  facet normal 0 0 1
    outer loop
      vertex 0.415823 1.95629 7.5
      vertex 0.618034 1.90211 7.5
      vertex 4.04508 2.93893 7.5
    endloop
  endfacet
  facet normal 0 0 1
    outer loop
      vertex 3.34565 3.71572 7.5
      vertex -4.97261 0.522642 7.5
      vertex 3.71572 3.34565 7.5
    endloop
  endfacet
  facet normal 0 0 1
    outer loop
      vertex 2.93893 4.04508 7.5
      vertex -4.97261 0.522642 7.5
      vertex 3.34565 3.71572 7.5
    endloop
  endfacet
  facet normal 0 0 1
    outer loop
      vertex 2.5 4.33013 7.5
      vertex -4.97261 0.522642 7.5
      vertex 2.93893 4.04508 7.5
    endloop
  endfacet
  facet normal 0 0 1
    outer loop
      vertex 2.03368 4.56773 7.5
      vertex -4.97261 0.522642 7.5
      vertex 2.5 4.33013 7.5
    endloop
  endfacet
  facet normal 0 0 1
    outer loop
      vertex 1.54508 4.75528 7.5
      vertex -4.97261 0.522642 7.5
      vertex 2.03368 4.56773 7.5
    endloop
  endfacet
  facet normal 0 0 1
    outer loop
      vertex 1.03956 4.89074 7.5
      vertex -4.97261 0.522642 7.5
      vertex 1.54508 4.75528 7.5
    endloop
  endfacet
  facet normal 0 0 1
    outer loop
      vertex 0.522642 4.97261 7.5
      vertex -4.97261 0.522642 7.5
      vertex 1.03956 4.89074 7.5
    endloop
  endfacet
  facet normal 0 0 1
    outer loop
      vertex 0 5 7.5
      vertex -4.97261 0.522642 7.5
      vertex 0.522642 4.97261 7.5
    endloop
  endfacet
  facet normal 0 0 1
    outer loop
      vertex -0.522642 4.97261 7.5
      vertex -4.97261 0.522642 7.5
      vertex 0 5 7.5
    endloop
  endfacet
  facet normal 0 0 1
    outer loop
      vertex -1.03956 4.89074 7.5
      vertex -4.97261 0.522642 7.5
      vertex -0.522642 4.97261 7.5
    endloop
  endfacet
  facet normal 0 0 1
    outer loop
      vertex -1.54508 4.75528 7.5
      vertex -4.97261 0.522642 7.5
      vertex -1.03956 4.89074 7.5
    endloop
  endfacet
  facet normal 0 0 1
    outer loop
      vertex -2.03368 4.56773 7.5
      vertex -4.97261 0.522642 7.5
      vertex -1.54508 4.75528 7.5
    endloop
  endfacet
  facet normal 0 0 1
    outer loop
      vertex -2.5 4.33013 7.5
      vertex -4.97261 0.522642 7.5
      vertex -2.03368 4.56773 7.5
    endloop
  endfacet
  facet normal 0 0 1
    outer loop
      vertex -2.93893 4.04508 7.5
      vertex -4.97261 0.522642 7.5
      vertex -2.5 4.33013 7.5
    endloop
  endfacet
  facet normal 0 0 1
    outer loop
      vertex -3.34565 3.71572 7.5
      vertex -4.97261 0.522642 7.5
      vertex -2.93893 4.04508 7.5
    endloop
  endfacet
  facet normal 0 0 1
    outer loop
      vertex -3.71572 3.34565 7.5
      vertex -4.97261 0.522642 7.5
      vertex -3.34565 3.71572 7.5
    endloop
  endfacet
  facet normal 0 0 1
    outer loop
      vertex -4.04508 2.93893 7.5
      vertex -4.97261 0.522642 7.5
      vertex -3.71572 3.34565 7.5
    endloop
  endfacet
  facet normal 0 0 1
    outer loop
      vertex -4.33013 2.5 7.5
      vertex -4.97261 0.522642 7.5
      vertex -4.04508 2.93893 7.5
    endloop
  endfacet
  facet normal 0 0 1
    outer loop
      vertex -4.56773 2.03368 7.5
      vertex -4.97261 0.522642 7.5
      vertex -4.33013 2.5 7.5
    endloop
  endfacet
  facet normal 0 0 1
    outer loop
      vertex -4.75528 1.54508 7.5
      vertex -4.97261 0.522642 7.5
      vertex -4.56773 2.03368 7.5
    endloop
  endfacet
  facet normal 0 0 1
    outer loop
      vertex -4.89074 1.03956 7.5
      vertex -4.97261 0.522642 7.5
      vertex -4.75528 1.54508 7.5
    endloop
  endfacet
  facet normal 0 0 1
    outer loop
      vertex 1.33826 -1.48629 7.5
      vertex 1.17557 -1.61803 7.5
      vertex 4.33013 -2.5 7.5
    endloop
  endfacet
  facet normal 0 0 1
    outer loop
      vertex -1.48629 -1.33826 7.5
      vertex -1.61803 -1.17557 7.5
      vertex -4.97261 0.522642 7.5
    endloop
  endfacet
  facet normal 0 0 1
    outer loop
      vertex -1.95629 0.415823 7.5
      vertex -1.90211 0.618034 7.5
      vertex -4.97261 0.522642 7.5
    endloop
  endfacet
  facet normal 0 0 1
    outer loop
      vertex 1.95629 -0.415823 7.5
      vertex 1.90211 -0.618034 7.5
      vertex 4.89074 -1.03956 7.5
    endloop
  endfacet
  facet normal 0 0 1
    outer loop
      vertex -1.90211 0.618034 7.5
      vertex -1.82709 0.813473 7.5
      vertex -4.97261 0.522642 7.5
    endloop
  endfacet
  facet normal 0 0 1
    outer loop
      vertex 1.98904 0.209057 7.5
      vertex 2 0 7.5
      vertex 5 0 7.5
    endloop
  endfacet
  facet normal 0 0 1
    outer loop
      vertex -1.82709 0.813473 7.5
      vertex -1.73205 1 7.5
      vertex -4.97261 0.522642 7.5
    endloop
  endfacet
  facet normal 0 0 1
    outer loop
      vertex 1.90211 0.618034 7.5
      vertex 1.95629 0.415823 7.5
      vertex 4.97261 0.522642 7.5
    endloop
  endfacet
  facet normal 0 0 1
    outer loop
      vertex -1.73205 1 7.5
      vertex -1.61803 1.17557 7.5
      vertex -4.97261 0.522642 7.5
    endloop
  endfacet
  facet normal 0 0 1
    outer loop
      vertex 1.73205 1 7.5
      vertex 1.82709 0.813473 7.5
      vertex 4.89074 1.03956 7.5
    endloop
  endfacet
  facet normal 0 0 1
    outer loop
      vertex -1.61803 1.17557 7.5
      vertex -1.48629 1.33826 7.5
      vertex -4.97261 0.522642 7.5
    endloop
  endfacet
  facet normal 0 0 1
    outer loop
      vertex 1.48629 1.33826 7.5
      vertex 1.61803 1.17557 7.5
      vertex 4.75528 1.54508 7.5
    endloop
  endfacet
  facet normal 0 0 1
    outer loop
      vertex -1.33826 1.48629 7.5
      vertex -1.17557 1.61803 7.5
      vertex -4.97261 0.522642 7.5
    endloop
  endfacet
  facet normal 0 0 1
    outer loop
      vertex 1.17557 1.61803 7.5
      vertex 1.33826 1.48629 7.5
      vertex 4.56773 2.03368 7.5
    endloop
  endfacet
  facet normal 0 0 1
    outer loop
      vertex -1.33826 1.48629 7.5
      vertex -4.97261 0.522642 7.5
      vertex -1.48629 1.33826 7.5
    endloop
  endfacet
  facet normal 0 0 1
    outer loop
      vertex -0.618034 1.90211 7.5
      vertex -0.415823 1.95629 7.5
      vertex 3.71572 3.34565 7.5
    endloop
  endfacet
  facet normal 0 0 1
    outer loop
      vertex 0.813473 1.82709 7.5
      vertex 1 1.73205 7.5
      vertex 4.33013 2.5 7.5
    endloop
  endfacet
  facet normal 0 0 1
    outer loop
      vertex -1 1.73205 7.5
      vertex -4.97261 0.522642 7.5
      vertex -1.17557 1.61803 7.5
    endloop
  endfacet
  facet normal 0 0 1
    outer loop
      vertex -0.813473 1.82709 7.5
      vertex -4.97261 0.522642 7.5
      vertex -1 1.73205 7.5
    endloop
  endfacet
  facet normal 0 0 1
    outer loop
      vertex -0.618034 1.90211 7.5
      vertex -4.97261 0.522642 7.5
      vertex -0.813473 1.82709 7.5
    endloop
  endfacet
  facet normal 0 0 1
    outer loop
      vertex -0.415823 1.95629 7.5
      vertex -0.209057 1.98904 7.5
      vertex 3.71572 3.34565 7.5
    endloop
  endfacet
  facet normal 0 0 1
    outer loop
      vertex 3.71572 3.34565 7.5
      vertex -4.97261 0.522642 7.5
      vertex -0.618034 1.90211 7.5
    endloop
  endfacet
  facet normal 0 0 1
    outer loop
      vertex -0.209057 1.98904 7.5
      vertex 0 2 7.5
      vertex 3.71572 3.34565 7.5
    endloop
  endfacet
  facet normal 0 0 1
    outer loop
      vertex 3.71572 3.34565 7.5
      vertex 0 2 7.5
      vertex 4.04508 2.93893 7.5
    endloop
  endfacet
  facet normal 0 0 1
    outer loop
      vertex 0 2 7.5
      vertex 0.209057 1.98904 7.5
      vertex 4.04508 2.93893 7.5
    endloop
  endfacet
  facet normal 0 0 1
    outer loop
      vertex 4.04508 2.93893 7.5
      vertex 0.618034 1.90211 7.5
      vertex 4.33013 2.5 7.5
    endloop
  endfacet
  facet normal 0 0 1
    outer loop
      vertex 0.618034 1.90211 7.5
      vertex 0.813473 1.82709 7.5
      vertex 4.33013 2.5 7.5
    endloop
  endfacet
  facet normal 0 0 1
    outer loop
      vertex 4.33013 2.5 7.5
      vertex 1 1.73205 7.5
      vertex 4.56773 2.03368 7.5
    endloop
  endfacet
  facet normal 0 0 1
    outer loop
      vertex 1 1.73205 7.5
      vertex 1.17557 1.61803 7.5
      vertex 4.56773 2.03368 7.5
    endloop
  endfacet
  facet normal 0 0 1
    outer loop
      vertex 4.56773 2.03368 7.5
      vertex 1.33826 1.48629 7.5
      vertex 4.75528 1.54508 7.5
    endloop
  endfacet
  facet normal 0 0 1
    outer loop
      vertex 1.33826 1.48629 7.5
      vertex 1.48629 1.33826 7.5
      vertex 4.75528 1.54508 7.5
    endloop
  endfacet
  facet normal 0 0 1
    outer loop
      vertex 4.75528 1.54508 7.5
      vertex 1.61803 1.17557 7.5
      vertex 4.89074 1.03956 7.5
    endloop
  endfacet
  facet normal 0 0 1
    outer loop
      vertex 1.61803 1.17557 7.5
      vertex 1.73205 1 7.5
      vertex 4.89074 1.03956 7.5
    endloop
  endfacet
  facet normal 0 0 1
    outer loop
      vertex 4.89074 1.03956 7.5
      vertex 1.82709 0.813473 7.5
      vertex 4.97261 0.522642 7.5
    endloop
  endfacet
  facet normal 0 0 1
    outer loop
      vertex 1.82709 0.813473 7.5
      vertex 1.90211 0.618034 7.5
      vertex 4.97261 0.522642 7.5
    endloop
  endfacet
  facet normal 0 0 1
    outer loop
      vertex 4.97261 0.522642 7.5
      vertex 1.95629 0.415823 7.5
      vertex 5 0 7.5
    endloop
  endfacet
  facet normal 0 0 1
    outer loop
      vertex 1.95629 0.415823 7.5
      vertex 1.98904 0.209057 7.5
      vertex 5 0 7.5
    endloop
  endfacet
  facet normal 0 0 1
    outer loop
      vertex 5 0 7.5
      vertex 2 0 7.5
      vertex 4.97261 -0.522642 7.5
    endloop
  endfacet
  facet normal 0 0 1
    outer loop
      vertex 4.97261 -0.522642 7.5
      vertex 1.98904 -0.209057 7.5
      vertex 4.89074 -1.03956 7.5
    endloop
  endfacet
  facet normal 0 0 1
    outer loop
      vertex -1.98904 0.209057 7.5
      vertex -1.95629 0.415823 7.5
      vertex -4.97261 0.522642 7.5
    endloop
  endfacet
  facet normal 0 0 1
    outer loop
      vertex 1.98904 -0.209057 7.5
      vertex 1.95629 -0.415823 7.5
      vertex 4.89074 -1.03956 7.5
    endloop
  endfacet
  facet normal 0 0 1
    outer loop
      vertex 0.209057 1.98904 7.5
      vertex 0.415823 1.95629 7.5
      vertex 4.04508 2.93893 7.5
    endloop
  endfacet
  facet normal 0 0 1
    outer loop
      vertex 4.89074 -1.03956 7.5
      vertex 1.90211 -0.618034 7.5
      vertex 4.75528 -1.54508 7.5
    endloop
  endfacet
  facet normal 0 0 1
    outer loop
      vertex 1.90211 -0.618034 7.5
      vertex 1.82709 -0.813473 7.5
      vertex 4.75528 -1.54508 7.5
    endloop
  endfacet
  facet normal 0 0 1
    outer loop
      vertex 4.75528 -1.54508 7.5
      vertex 1.73205 -1 7.5
      vertex 4.56773 -2.03368 7.5
    endloop
  endfacet
  facet normal 0 0 1
    outer loop
      vertex 1.73205 -1 7.5
      vertex 1.61803 -1.17557 7.5
      vertex 4.56773 -2.03368 7.5
    endloop
  endfacet
  facet normal 0 0 1
    outer loop
      vertex 4.56773 -2.03368 7.5
      vertex 1.48629 -1.33826 7.5
      vertex 4.33013 -2.5 7.5
    endloop
  endfacet
  facet normal 0 0 1
    outer loop
      vertex -1.98904 -0.209057 7.5
      vertex -2 0 7.5
      vertex -4.97261 0.522642 7.5
    endloop
  endfacet
  facet normal 0 0 1
    outer loop
      vertex 1.48629 -1.33826 7.5
      vertex 1.33826 -1.48629 7.5
      vertex 4.33013 -2.5 7.5
    endloop
  endfacet
  facet normal 0 0 1
    outer loop
      vertex 4.33013 -2.5 7.5
      vertex 1.17557 -1.61803 7.5
      vertex 4.04508 -2.93893 7.5
    endloop
  endfacet
  facet normal 0 0 1
    outer loop
      vertex 1.17557 -1.61803 7.5
      vertex 1 -1.73205 7.5
      vertex 4.04508 -2.93893 7.5
    endloop
  endfacet
  facet normal 0 0 1
    outer loop
      vertex 4.04508 -2.93893 7.5
      vertex 0.813473 -1.82709 7.5
      vertex 3.71572 -3.34565 7.5
    endloop
  endfacet
  facet normal 0 0 1
    outer loop
      vertex 0.813473 -1.82709 7.5
      vertex 0.618034 -1.90211 7.5
      vertex 3.71572 -3.34565 7.5
    endloop
  endfacet
  facet normal 0 0 1
    outer loop
      vertex 3.71572 -3.34565 7.5
      vertex 0.415823 -1.95629 7.5
      vertex 3.34565 -3.71572 7.5
    endloop
  endfacet
  facet normal 0 0 1
    outer loop
      vertex -1.61803 -1.17557 7.5
      vertex -1.73205 -1 7.5
      vertex -4.97261 0.522642 7.5
    endloop
  endfacet
  facet normal 0 0 1
    outer loop
      vertex 0.415823 -1.95629 7.5
      vertex 0.209057 -1.98904 7.5
      vertex 3.34565 -3.71572 7.5
    endloop
  endfacet
  facet normal 0 0 1
    outer loop
      vertex 0.209057 -1.98904 7.5
      vertex 0 -2 7.5
      vertex 3.34565 -3.71572 7.5
    endloop
  endfacet
  facet normal 0 0 1
    outer loop
      vertex 3.34565 -3.71572 7.5
      vertex -0.209057 -1.98904 7.5
      vertex 2.93893 -4.04508 7.5
    endloop
  endfacet
  facet normal 0 0 1
    outer loop
      vertex -0.209057 -1.98904 7.5
      vertex -0.415823 -1.95629 7.5
      vertex 2.93893 -4.04508 7.5
    endloop
  endfacet
  facet normal 0 0 1
    outer loop
      vertex -0.415823 -1.95629 7.5
      vertex -0.618034 -1.90211 7.5
      vertex 2.93893 -4.04508 7.5
    endloop
  endfacet
  facet normal 0 0 1
    outer loop
      vertex -0.618034 -1.90211 7.5
      vertex -0.813473 -1.82709 7.5
      vertex 2.93893 -4.04508 7.5
    endloop
  endfacet
  facet normal 0 0 1
    outer loop
      vertex -0.813473 -1.82709 7.5
      vertex -1 -1.73205 7.5
      vertex 2.93893 -4.04508 7.5
    endloop
  endfacet
  facet normal 0 0 1
    outer loop
      vertex -1.17557 -1.61803 7.5
      vertex -1.33826 -1.48629 7.5
      vertex -4.97261 0.522642 7.5
    endloop
  endfacet
  facet normal 0 0 1
    outer loop
      vertex -1.33826 -1.48629 7.5
      vertex -1.48629 -1.33826 7.5
      vertex -4.97261 0.522642 7.5
    endloop
  endfacet
  facet normal 0 0 1
    outer loop
      vertex -1.73205 -1 7.5
      vertex -1.82709 -0.813473 7.5
      vertex -4.97261 0.522642 7.5
    endloop
  endfacet
  facet normal 0 0 1
    outer loop
      vertex -1.82709 -0.813473 7.5
      vertex -1.90211 -0.618034 7.5
      vertex -4.97261 0.522642 7.5
    endloop
  endfacet
  facet normal 0 0 1
    outer loop
      vertex -1.90211 -0.618034 7.5
      vertex -1.95629 -0.415823 7.5
      vertex -4.97261 0.522642 7.5
    endloop
  endfacet
  facet normal 0 0 1
    outer loop
      vertex 1.82709 -0.813473 7.5
      vertex 1.73205 -1 7.5
      vertex 4.75528 -1.54508 7.5
    endloop
  endfacet
  facet normal 0 0 1
    outer loop
      vertex -1.95629 -0.415823 7.5
      vertex -1.98904 -0.209057 7.5
      vertex -4.97261 0.522642 7.5
    endloop
  endfacet
  facet normal 0 0 1
    outer loop
      vertex -2 0 7.5
      vertex -1.98904 0.209057 7.5
      vertex -4.97261 0.522642 7.5
    endloop
  endfacet
endsolid OpenSCAD_Model
